<?xml version="1.0" encoding="UTF-8"?>
<svg id="Layer_2" data-name="Layer 2" xmlns="http://www.w3.org/2000/svg" viewBox="0 0 775.83 136.25">
  <defs>
    <style>
      .cls-1, .cls-2, .cls-3, .cls-4 {
        stroke-linecap: round;
        stroke-width: 4px;
      }

      .cls-1, .cls-5, .cls-6 {
        fill: #fff;
      }

      .cls-1, .cls-4 {
        stroke: #fff;
        stroke-miterlimit: 10;
      }

      .cls-2 {
        stroke: #ed1c24;
      }

      .cls-2, .cls-3 {
        stroke-linejoin: round;
      }

      .cls-2, .cls-3, .cls-4 {
        fill: none;
      }

      .cls-3 {
        stroke: #00a651;
      }

      .cls-6 {
        font-family: FranklinGothic-Demi, 'Franklin Gothic Demi';
        font-size: 25px;
        font-weight: 300;
        isolation: isolate;
      }
    </style>
  </defs>
  <g id="Layer_1-2" data-name="Layer 1">
    <path class="cls-1" d="M773.83,89.74H2"/>
    <g>
      <text class="cls-6" transform="translate(21.7 69.65)"><tspan x="0" y="0">День 1</tspan></text>
      <path class="cls-3" d="M73.15,115.36l-18.72,18.72-8.51-8.51"/>
      <line class="cls-1" x1="59.53" y1="81.63" x2="59.53" y2="97.52"/>
    </g>
    <g>
      <text class="cls-6" transform="translate(485.87 69.9)"><tspan x="0" y="0">День 21</tspan></text>
      <path class="cls-2" d="M540.55,115.94l-18.06,18.06"/>
      <path class="cls-2" d="M522.48,115.94l18.06,18.06"/>
      <line class="cls-1" x1="531.52" y1="81.87" x2="531.52" y2="97.77"/>
    </g>
    <g>
      <text class="cls-6" transform="translate(176.42 69.73)"><tspan x="0" y="0">День 2</tspan></text>
      <line class="cls-1" x1="214.46" y1="81.28" x2="214.46" y2="97.18"/>
      <path class="cls-3" d="M228.08,115.44l-18.72,18.72-8.51-8.51"/>
    </g>
    <g>
      <text class="cls-6" transform="translate(331.14 69.82)"><tspan x="0" y="0">День 7</tspan></text>
      <line class="cls-1" x1="369.43" y1="81.79" x2="369.43" y2="97.68"/>
      <path class="cls-3" d="M383.05,115.53l-18.72,18.72-8.51-8.51"/>
    </g>
    <g>
      <text class="cls-6" transform="translate(655.25 69.82)"><tspan x="0" y="0">День 22</tspan></text>
      <line class="cls-1" x1="700.83" y1="81.79" x2="700.83" y2="97.68"/>
      <path class="cls-3" d="M714.45,115.53l-18.72,18.72-8.51-8.51"/>
    </g>
    <g>
      <path class="cls-4" d="M59.53,36.66s65.99-76.48,133.5-2.23"/>
      <path class="cls-5" d="M172.73,30.18c.17-.66,.85-1.06,1.51-.89l18.36,4.77-3.45-18.66c-.12-.67,.32-1.32,.99-1.45,.67-.12,1.32,.33,1.45,.99l3.8,20.57c.08,.42-.06,.84-.37,1.13-.31,.29-.75,.4-1.16,.29l-20.25-5.26c-.24-.06-.44-.19-.59-.35-.28-.3-.4-.73-.29-1.16Z"/>
    </g>
    <g>
      <path class="cls-4" d="M224.19,36.66s65.99-76.48,133.5-2.23"/>
      <path class="cls-5" d="M337.39,30.18c.17-.66,.85-1.06,1.51-.89l18.36,4.77-3.45-18.66c-.12-.67,.32-1.32,.99-1.45,.67-.12,1.32,.33,1.45,.99l3.8,20.57c.08,.42-.06,.84-.37,1.13-.31,.29-.75,.4-1.16,.29l-20.25-5.26c-.24-.06-.44-.19-.59-.35-.28-.3-.4-.73-.29-1.16Z"/>
    </g>
    <g>
      <path class="cls-4" d="M388.86,36.66s65.99-76.48,133.5-2.23"/>
      <path class="cls-5" d="M502.05,30.18c.17-.66,.85-1.06,1.51-.89l18.36,4.77-3.45-18.66c-.12-.67,.32-1.32,.99-1.45,.67-.12,1.32,.33,1.45,.99l3.8,20.57c.08,.42-.06,.84-.37,1.13-.31,.29-.75,.4-1.16,.29l-20.25-5.26c-.24-.06-.44-.19-.59-.35-.28-.3-.4-.73-.29-1.16Z"/>
    </g>
    <g>
      <path class="cls-4" d="M553.52,36.66s65.99-76.48,133.5-2.23"/>
      <path class="cls-5" d="M666.71,30.18c.17-.66,.85-1.06,1.51-.89l18.36,4.77-3.45-18.66c-.12-.67,.32-1.32,.99-1.45,.67-.12,1.32,.33,1.45,.99l3.8,20.57c.08,.42-.06,.84-.37,1.13-.31,.29-.75,.4-1.16,.29l-20.25-5.26c-.24-.06-.44-.19-.59-.35-.28-.3-.4-.73-.29-1.16Z"/>
    </g>
  </g>
</svg>