<svg transform="scale(1)" id="_0274_manager" data-name="0274_manager" xmlns="http://www.w3.org/2000/svg" xmlns:xlink="http://www.w3.org/1999/xlink" viewBox="0 0 500 500" class="show_show__wrapper__graphic__5Waiy "><title>React</title><defs><style>
      .cls-1 {
        fill: url(#linear-gradient-38);
      }

      .cls-1, .cls-2, .cls-3, .cls-4, .cls-5, .cls-6, .cls-7, .cls-8, .cls-9, .cls-10, .cls-11, .cls-12, .cls-13, .cls-14, .cls-15, .cls-16, .cls-17, .cls-18, .cls-19, .cls-20, .cls-21, .cls-22, .cls-23, .cls-24, .cls-25, .cls-26, .cls-27, .cls-28, .cls-29, .cls-30, .cls-31, .cls-32, .cls-33, .cls-34, .cls-35, .cls-36, .cls-37, .cls-38, .cls-39, .cls-40, .cls-41, .cls-42, .cls-43 {
        stroke-width: 0px;
      }

      .cls-2 {
        fill: url(#linear-gradient-12);
      }

      .cls-3 {
        fill: #edf4fb;
      }

      .cls-4 {
        fill: url(#linear-gradient-17);
      }

      .cls-5 {
        fill: url(#linear-gradient-19);
      }

      .cls-6 {
        fill: url(#linear-gradient-33);
      }

      .cls-7 {
        fill: url(#linear-gradient);
      }

      .cls-8 {
        fill: url(#linear-gradient-21);
      }

      .cls-9 {
        fill: url(#linear-gradient-6);
      }

      .cls-10 {
        fill: url(#linear-gradient-15);
      }

      .cls-11 {
        fill: url(#linear-gradient-11);
      }

      .cls-12 {
        fill: url(#linear-gradient-5);
      }

      .cls-13 {
        fill: url(#linear-gradient-31);
      }

      .cls-14 {
        fill: url(#linear-gradient-34);
      }

      .cls-15 {
        fill: url(#linear-gradient-13);
      }

      .cls-16 {
        fill: url(#linear-gradient-23);
      }

      .cls-17 {
        fill: #606161;
      }

      .cls-18 {
        fill: url(#linear-gradient-25);
      }

      .cls-19 {
        fill: url(#linear-gradient-16);
      }

      .cls-20 {
        isolation: isolate;
        opacity: .24;
      }

      .cls-20, .cls-42 {
        fill: #68e1fd;
      }

      .cls-21 {
        fill: url(#linear-gradient-22);
      }

      .cls-22 {
        fill: #fff;
      }

      .cls-23 {
        fill: url(#linear-gradient-35);
      }

      .cls-24 {
        fill: url(#linear-gradient-32);
      }

      .cls-25 {
        fill: url(#linear-gradient-20);
      }

      .cls-26 {
        fill: url(#linear-gradient-14);
      }

      .cls-27 {
        fill: url(#linear-gradient-2);
      }

      .cls-28 {
        fill: url(#linear-gradient-7);
      }

      .cls-29 {
        fill: url(#linear-gradient-3);
      }

      .cls-30 {
        fill: url(#linear-gradient-9);
      }

      .cls-31 {
        fill: url(#linear-gradient-27);
      }

      .cls-32 {
        fill: url(#linear-gradient-36);
      }

      .cls-33 {
        fill: url(#linear-gradient-8);
      }

      .cls-34 {
        fill: url(#linear-gradient-24);
      }

      .cls-35 {
        fill: url(#linear-gradient-26);
      }

      .cls-36 {
        fill: url(#linear-gradient-18);
      }

      .cls-37 {
        fill: url(#linear-gradient-30);
      }

      .cls-38 {
        fill: url(#linear-gradient-29);
      }

      .cls-39 {
        fill: url(#linear-gradient-28);
      }

      .cls-40 {
        fill: url(#linear-gradient-10);
      }

      .cls-41 {
        fill: url(#linear-gradient-4);
      }

      .cls-43 {
        fill: url(#linear-gradient-37);
      }
    </style><linearGradient id="linear-gradient" x1="340.61" y1="2791.98" x2="355.53" y2="2706.36" gradientTransform="translate(-42.88 3022.44) scale(1 -1)" gradientUnits="userSpaceOnUse"><stop offset="0" stop-color="#010101" stop-opacity="0"></stop><stop offset=".95" stop-color="#010101"></stop></linearGradient><linearGradient id="linear-gradient-2" x1="358.29" y1="2830.85" x2="375.33" y2="2830.85" gradientTransform="translate(-42.88 3022.44) scale(1 -1)" gradientUnits="userSpaceOnUse"><stop offset="0" stop-color="#e4c5d5"></stop><stop offset=".42" stop-color="#e9d3cf"></stop><stop offset="1" stop-color="#efe8ca"></stop></linearGradient><linearGradient id="linear-gradient-3" x1="373.68" y1="2860.44" x2="369.13" y2="2824.81" xlink:href="#linear-gradient"></linearGradient><linearGradient id="linear-gradient-4" x1="377.54" y1="2753.53" x2="358.2" y2="2689.45" xlink:href="#linear-gradient"></linearGradient><linearGradient id="linear-gradient-5" x1="416.39" y1="2769.39" x2="448.28" y2="2769.39" xlink:href="#linear-gradient-2"></linearGradient><linearGradient id="linear-gradient-6" x1="432.68" y1="2778.02" x2="445.73" y2="2780.92" xlink:href="#linear-gradient"></linearGradient><linearGradient id="linear-gradient-7" x1="222.98" y1="2804.97" x2="236.24" y2="2715.9" xlink:href="#linear-gradient"></linearGradient><linearGradient id="linear-gradient-8" x1="187.63" y1="2821.9" x2="209.66" y2="2821.9" xlink:href="#linear-gradient-2"></linearGradient><linearGradient id="linear-gradient-9" x1="188.12" y1="2832.65" x2="195.48" y2="2797.33" gradientTransform="translate(-2671.04 521.82) rotate(79.52) scale(1 -1)" xlink:href="#linear-gradient"></linearGradient><linearGradient id="linear-gradient-10" x1="204.24" y1="2819.99" x2="114.2" y2="2877.71" gradientTransform="translate(-2672.74 522.16) rotate(79.52) scale(1 -1)" xlink:href="#linear-gradient"></linearGradient><linearGradient id="linear-gradient-11" x1="189.89" y1="2764.5" x2="284.35" y2="2701.11" xlink:href="#linear-gradient"></linearGradient><linearGradient id="linear-gradient-12" x1="129.03" y1="2779.97" x2="166.03" y2="2779.97" xlink:href="#linear-gradient-2"></linearGradient><linearGradient id="linear-gradient-13" x1="144.19" y1="2789.85" x2="128.24" y2="2742" xlink:href="#linear-gradient"></linearGradient><linearGradient id="linear-gradient-14" x1="130.96" y1="2823.8" x2="102.51" y2="2783.19" gradientTransform="translate(-31 3046.71) scale(1 -1)" xlink:href="#linear-gradient"></linearGradient><linearGradient id="linear-gradient-15" x1="111.45" y1="2827.15" x2="110.9" y2="2804.57" gradientTransform="translate(-31 3046.71) scale(1 -1)" xlink:href="#linear-gradient"></linearGradient><linearGradient id="linear-gradient-16" x1="122.15" y1="2826.89" x2="121.6" y2="2804.32" gradientTransform="translate(-31 3046.71) scale(1 -1)" xlink:href="#linear-gradient"></linearGradient><linearGradient id="linear-gradient-17" x1="122.07" y1="2818.13" x2="91.69" y2="2798.67" gradientTransform="translate(-31 3046.71) scale(1 -1)" xlink:href="#linear-gradient"></linearGradient><linearGradient id="linear-gradient-18" x1="114.93" y1="2819.49" x2="107.99" y2="2805.61" gradientTransform="translate(-31 3046.71) scale(1 -1)" xlink:href="#linear-gradient"></linearGradient><linearGradient id="linear-gradient-19" x1="112.86" y1="2813.65" x2="95.6" y2="2811.03" gradientTransform="translate(-31 3046.71) scale(1 -1)" xlink:href="#linear-gradient"></linearGradient><linearGradient id="linear-gradient-20" x1="110.46" y1="2817.51" x2="106.63" y2="2808.97" gradientTransform="translate(-31 3046.71) scale(1 -1)" xlink:href="#linear-gradient"></linearGradient><linearGradient id="linear-gradient-21" x1="113.3" y1="2817.52" x2="109.47" y2="2808.98" gradientTransform="translate(-31 3046.71) scale(1 -1)" xlink:href="#linear-gradient"></linearGradient><linearGradient id="linear-gradient-22" x1="139.88" y1="2805.68" x2="140.14" y2="2800.37" xlink:href="#linear-gradient"></linearGradient><linearGradient id="linear-gradient-23" x1="293.49" y1="2719.37" x2="290.18" y2="2573.54" gradientTransform="translate(-31 3046.71) scale(1 -1)" xlink:href="#linear-gradient"></linearGradient><linearGradient id="linear-gradient-24" x1="292.76" y1="2718.37" x2="291.93" y2="2613.97" gradientTransform="translate(-31 3046.71) scale(1 -1)" xlink:href="#linear-gradient"></linearGradient><linearGradient id="linear-gradient-25" x1="287.19" y1="2768.14" x2="285.32" y2="2749.7" xlink:href="#linear-gradient-2"></linearGradient><linearGradient id="linear-gradient-26" x1="285.49" y1="2797.79" x2="290.88" y2="2765.67" xlink:href="#linear-gradient-2"></linearGradient><linearGradient id="linear-gradient-27" x1="305.75" y1="2785.63" x2="304.5" y2="2774.45" xlink:href="#linear-gradient-2"></linearGradient><linearGradient id="linear-gradient-28" x1="268.72" y1="2788.01" x2="271.83" y2="2773.44" xlink:href="#linear-gradient-2"></linearGradient><linearGradient id="linear-gradient-29" x1="235.39" y1="2745.95" x2="218.51" y2="2653.45" xlink:href="#linear-gradient"></linearGradient><linearGradient id="linear-gradient-30" x1="323.41" y1="2739.57" x2="352.68" y2="2656.72" xlink:href="#linear-gradient"></linearGradient><linearGradient id="linear-gradient-31" x1="281.82" y1="2652.66" x2="283.49" y2="2746.02" xlink:href="#linear-gradient"></linearGradient><linearGradient id="linear-gradient-32" x1="371.01" y1="2721.15" x2="378.06" y2="2669.36" xlink:href="#linear-gradient"></linearGradient><linearGradient id="linear-gradient-33" x1="379.61" y1="2709.12" x2="371.12" y2="2649.25" xlink:href="#linear-gradient"></linearGradient><linearGradient id="linear-gradient-34" x1="366.35" y1="2678.34" x2="389.14" y2="2678.34" xlink:href="#linear-gradient-2"></linearGradient><linearGradient id="linear-gradient-35" x1="379.05" y1="2689.13" x2="390.58" y2="2689.13" xlink:href="#linear-gradient-2"></linearGradient><linearGradient id="linear-gradient-36" x1="193.27" y1="2698.71" x2="181.27" y2="2650.72" xlink:href="#linear-gradient"></linearGradient><linearGradient id="linear-gradient-37" x1="197.09" y1="2702.25" x2="220.57" y2="2702.25" gradientTransform="translate(-31 3046.71) scale(1 -1)" xlink:href="#linear-gradient"></linearGradient><linearGradient id="linear-gradient-38" x1="169.07" y1="2733.8" x2="160.28" y2="2603.1" xlink:href="#linear-gradient"></linearGradient></defs><g id="background"><path class="cls-20" d="m175.28,78.66c-46.2-.92-97.3,5.12-128.5,39.19-30.16,32.92-32.66,81.92-33.52,126.51-.63,32.6-1.27,65.18-1.92,97.73-.55,28.38-.39,59.1,16.61,81.82,18.58,24.85,52.7,33.04,83.67,31.11,30.96-1.93,60.81-12.09,91.53-16.48,77.77-11.14,160.67,14.5,233.83-14.13,17.03-6.66,33.58-16.76,43.02-32.43,13.9-23.01,9.45-52.79-.15-77.93-9.6-25.14-23.93-48.73-29.16-75.12-8.92-44.77,8.9-94.03-10.26-135.46-19.95-43.14-67.46-50.16-108.98-41.34-54.07,11.51-100.25,17.59-156.17,16.52Z"></path></g><g id="hand_6th" data-name="hand 6th"><path class="cls-42" d="m289.3,253.06c9.09-12,15.43-25.84,18.57-40.56.98-4.6,1.68-9.38,4.17-13.36,6.24-.24,12.48.28,18.59,1.56-4.32,26.86-16.52,51.85-30.99,74.88-2.29,3.68-5.28,7.64-9.58,7.87-1.68,0-3.34-.32-4.91-.92-4.15-1.34-8.34-2.71-12.03-5.02-1.84-1.14-6.95-4.52-6.39-7.13.51-2.39,5.73-3.12,7.59-3.99,6.04-2.92,10.9-8.04,14.97-13.33Z"></path><path class="cls-7" d="m289.3,253.06c9.09-12,15.43-25.84,18.57-40.56.98-4.6,1.68-9.38,4.17-13.36,6.24-.24,12.48.28,18.59,1.56-4.32,26.86-16.52,51.85-30.99,74.88-2.29,3.68-5.28,7.64-9.58,7.87-1.68,0-3.34-.32-4.91-.92-4.15-1.34-8.34-2.71-12.03-5.02-1.84-1.14-6.95-4.52-6.39-7.13.51-2.39,5.73-3.12,7.59-3.99,6.04-2.92,10.9-8.04,14.97-13.33Z"></path><path class="cls-27" d="m319.1,181.07c1.4-.55,2.93-.66,4.39-.33,1.92.29,3.81.76,5.64,1.42.73.22,1.41.57,2.01,1.04,1.84,1.57,1.55,4.6.29,6.68-1.25,2.08-3.21,3.68-4.56,5.67-1.9,2.87-2.95,6.01-6.69,6.91-2.83.68-3.87-.59-4.14-3.25-.47-4.62-2.14-15.61,3.06-18.14Z"></path><path class="cls-42" d="m307.65,186.96s14.63-8.01,17.67-1.66l.84,3.18,3.18.28s10.91-8.42,24.85-5.66l-5.94-15.75s-15.29.06-18.6,1.58l-.66-.32c-5.95-2.93-11.85-3.68-17.81-.83l-7.67,3.68-.69,17.54,4.83-2.04Z"></path><path class="cls-29" d="m307.65,186.96s14.63-8.01,17.67-1.66l.84,3.18,3.18.28s10.91-8.42,24.85-5.66l-5.94-15.75s-15.29.06-18.6,1.58l-.66-.32c-5.95-2.93-11.85-3.68-17.81-.83l-7.67,3.68-.69,17.54,4.83-2.04Z"></path><path class="cls-22" d="m307.93,183.23s14.63-8.02,17.67-1.66l.84,3.18,3.18.28s10.91-8.43,24.85-5.66l-5.94-15.75s-15.29.06-18.6,1.58l-.66-.32c-5.95-2.93-11.85-3.68-17.81-.83l-7.67,3.68-.68,17.57,4.82-2.07Z"></path></g><g id="hand_5th" data-name="hand 5th"><path class="cls-42" d="m307.04,278.09c4.36-.65,8.66-1.69,13.01-2.44s8.68-1.22,12.98-2.1c5.71-1.3,11.33-2.96,16.83-4.97,8.42-2.88,16.94-5.81,24.37-10.7,1.44,3.59,2.76,7.24,3.86,10.93.32.73.36,1.56.12,2.32-.26.46-.62.84-1.06,1.13-2.63,2.04-5.27,4.09-8.03,5.96-8.28,5.68-17.59,9.77-26.85,13.73-5.54,2.54-11.28,4.62-17.17,6.22-8.78,2.16-17.93,2.26-26.97,2.36-1.25.09-2.5-.07-3.68-.46-1.16-.56-2.18-1.38-2.97-2.39-2.33-2.49-4.06-5.5-5.03-8.77-.56-2.08-.6-4.25-.13-6.35.73-2.98,1.44-3.24,4.3-3.3,5.49-.04,10.96-.43,16.4-1.17Z"></path><path class="cls-41" d="m307.04,278.09c4.36-.65,8.66-1.69,13.01-2.44s8.68-1.22,12.98-2.1c5.71-1.3,11.33-2.96,16.83-4.97,8.42-2.88,16.94-5.81,24.37-10.7,1.44,3.59,2.76,7.24,3.86,10.93.32.73.36,1.56.12,2.32-.26.46-.62.84-1.06,1.13-2.63,2.04-5.27,4.09-8.03,5.96-8.28,5.68-17.59,9.77-26.85,13.73-5.54,2.54-11.28,4.62-17.17,6.22-8.78,2.16-17.93,2.26-26.97,2.36-1.25.09-2.5-.07-3.68-.46-1.16-.56-2.18-1.38-2.97-2.39-2.33-2.49-4.06-5.5-5.03-8.77-.56-2.08-.6-4.25-.13-6.35.73-2.98,1.44-3.24,4.3-3.3,5.49-.04,10.96-.43,16.4-1.17Z"></path><path class="cls-12" d="m379.03,253.17c1.06-2.86,1.72-6,3.76-8.28,1.66-1.84,4.01-2.84,6.29-3.8,1.5,1.5,1.61,3.88.28,5.52,2.7-.65,5.04-2.32,6.54-4.66.92-1.52,1.84-3.5,3.62-3.73,1.64-.2,2.98,1.28,3.79,2.72,2.76,4.85,3,11.46-.62,15.71-1.9,1.97-4.18,3.54-6.71,4.6-3.31,1.66-6.69,3.19-10.12,4.6-2.83,1.15-5.81,2.24-8.85,2.02-.55,0-1.08-.16-1.53-.49-.28-.28-.5-.61-.64-.98-.98-2.21-2.11-5.26-.55-7.2,1.79-2.14,3.65-3.09,4.75-6.03Z"></path><path class="cls-42" d="m382.02,234.67l11.39,23.41s6.63-.83,8.28-4.14l-5.63-25.27s-12.6,1.66-14.05,6.01Z"></path><path class="cls-9" d="m382.02,234.67l11.39,23.41s6.63-.83,8.28-4.14l-5.63-25.27s-12.6,1.66-14.05,6.01Z"></path><path class="cls-22" d="m380.72,231.2s3.53-4.92,12.07-5.34l2.76,1.56.52,1.24.21.83s-9.54.31-14.61,6.21c0,0-1.4.16-1.19-.62s.46-1.56.46-1.56l-.22-2.33Z"></path></g><g id="hand_4th" data-name="hand 4th"><path class="cls-42" d="m171.91,254.48c-6.22-11.89-9.73-25.04-15.93-36.95-.52-1-1.09-2.16-.69-3.23.35-.71.91-1.3,1.6-1.68,3.61-2.47,7.51-4.47,11.62-5.96,6.91,22.01,20.5,41.31,38.9,55.22,2.49,1.84,5.37,4.36,4.78,7.42-.33,1.24-.98,2.37-1.89,3.28-2.36,2.69-6.44,7.28-10.28,7.25-3.68,0-8.42-3.18-11.32-5.2-7.24-5.08-12.74-12.41-16.79-20.16Z"></path><path class="cls-28" d="m171.91,254.48c-6.22-11.89-9.73-25.04-15.93-36.95-.52-1-1.09-2.16-.69-3.23.35-.71.91-1.3,1.6-1.68,3.61-2.47,7.51-4.47,11.62-5.96,6.91,22.01,20.5,41.31,38.9,55.22,2.49,1.84,5.37,4.36,4.78,7.42-.33,1.24-.98,2.37-1.89,3.28-2.36,2.69-6.44,7.28-10.28,7.25-3.68,0-8.42-3.18-11.32-5.2-7.24-5.08-12.74-12.41-16.79-20.16Z"></path><path class="cls-33" d="m166.02,198.6c-.02-1.14-.24-2.27-.64-3.34-.71-1.62-2.2-2.76-3.63-3.77-.88-.78-1.97-1.27-3.14-1.41-.29-.02-.58.07-.82.24-.46.38-.35,1.11-.09,1.65.34.49.56,1.05.64,1.65-2.45.83-5.13.65-7.44-.51-1.24-.64-2.52-1.56-3.88-1.29-1.11.31-1.95,1.21-2.17,2.34-.2,1.11-.1,2.26.31,3.31.88,2.65,2.55,4.96,4.8,6.61,2.76,2.04,6.39,3.01,8.71,5.58.34.45.76.84,1.23,1.13.47.2.98.27,1.48.2,1.84-.15,4.74-1.31,5.28-3.25.33-1.15-.22-3.14-.3-4.34l-.35-4.8Z"></path><rect class="cls-42" x="131.24" y="180.46" width="29.2" height="24.45" rx="3.59" ry="3.59" transform="translate(-70.15 301.05) rotate(-79.52)"></rect><rect class="cls-30" x="131.24" y="180.46" width="29.2" height="24.45" rx="3.59" ry="3.59" transform="translate(-70.15 301.05) rotate(-79.52)"></rect><rect class="cls-42" x="130.21" y="179.68" width="29.2" height="24.45" rx="3.59" ry="3.59" transform="translate(-70.23 299.4) rotate(-79.52)"></rect><rect class="cls-40" x="130.18" y="179.61" width="29.2" height="24.45" rx="3.59" ry="3.59" transform="translate(-70.18 299.31) rotate(-79.52)"></rect><rect class="cls-3" x="143.55" y="172.47" width="5.8" height="20.61" transform="translate(-58.35 296.41) rotate(-80.32)"></rect><rect class="cls-3" x="135.51" y="186.34" width="3.08" height="4.62" transform="translate(-72.03 291.88) rotate(-80.28)"></rect><rect class="cls-3" x="140.74" y="187.25" width="3.08" height="4.62" transform="translate(-68.58 297.8) rotate(-80.28)"></rect><rect class="cls-3" x="145.99" y="188.14" width="3.08" height="4.62" transform="translate(-65.1 303.71) rotate(-80.28)"></rect><rect class="cls-3" x="151.2" y="189.03" width="3.08" height="4.62" transform="translate(-61.64 309.59) rotate(-80.28)"></rect><rect class="cls-3" x="134.9" y="189.92" width="3.08" height="4.62" transform="translate(-76.07 294.26) rotate(-80.28)"></rect><rect class="cls-3" x="140.13" y="190.83" width="3.08" height="4.62" transform="translate(-72.62 300.17) rotate(-80.28)"></rect><rect class="cls-3" x="145.32" y="191.73" width="3.1" height="4.64" transform="translate(-69.24 305.97) rotate(-80.26)"></rect><rect class="cls-3" x="150.58" y="192.62" width="3.08" height="4.62" transform="translate(-65.69 311.95) rotate(-80.28)"></rect><rect class="cls-3" x="134.28" y="193.51" width="3.08" height="4.62" transform="translate(-80.12 296.62) rotate(-80.28)"></rect><rect class="cls-3" x="139.53" y="194.41" width="3.08" height="4.62" transform="translate(-76.64 302.55) rotate(-80.28)"></rect><rect class="cls-3" x="144.76" y="195.3" width="3.08" height="4.62" transform="translate(-73.18 308.45) rotate(-80.28)"></rect><rect class="cls-3" x="149.97" y="196.2" width="3.08" height="4.62" transform="translate(-69.73 314.33) rotate(-80.28)"></rect><rect class="cls-3" x="133.67" y="197.09" width="3.08" height="4.62" transform="translate(-84.15 299.01) rotate(-80.28)"></rect><rect class="cls-3" x="138.91" y="197.98" width="3.08" height="4.62" transform="translate(-80.67 304.91) rotate(-80.28)"></rect><rect class="cls-3" x="144.15" y="198.88" width="3.08" height="4.62" transform="translate(-77.2 310.82) rotate(-80.28)"></rect><rect class="cls-3" x="149.36" y="199.77" width="3.08" height="4.62" transform="translate(-73.76 316.7) rotate(-80.28)"></rect></g><g id="hand_3rd" data-name="hand 3rd"><path class="cls-42" d="m176.18,265.19c-15.56-6.63-30.47-14.73-45.1-23.16-1.53-.92-3.35-1.79-4.96-1.07-1.27.56-1.91,1.94-2.53,3.18-2.09,4.23-4.88,8.07-8.25,11.38,2.02,2.11,4.82,3.2,7.42,4.51,4.97,2.5,9.42,5.93,13.81,9.31,14.86,11.43,30.58,23.16,49.08,26.15,2.38.53,4.86.5,7.23-.09,2.88-.87,5.15-3.07,7.22-5.26,1.75-1.73,3.29-3.65,4.6-5.73,3.59-6.08-2.06-9.2-6.93-10.81-7.24-2.43-14.48-5.38-21.57-8.41Z"></path><path class="cls-11" d="m176.18,265.19c-15.56-6.63-30.47-14.73-45.1-23.16-1.53-.92-3.35-1.79-4.96-1.07-1.27.56-1.91,1.94-2.53,3.18-2.09,4.23-4.88,8.07-8.25,11.38,2.02,2.11,4.82,3.2,7.42,4.51,4.97,2.5,9.42,5.93,13.81,9.31,14.86,11.43,30.58,23.16,49.08,26.15,2.38.53,4.86.5,7.23-.09,2.88-.87,5.15-3.07,7.22-5.26,1.75-1.73,3.29-3.65,4.6-5.73,3.59-6.08-2.06-9.2-6.93-10.81-7.24-2.43-14.48-5.38-21.57-8.41Z"></path><path class="cls-2" d="m110.96,233.29c-.3-.2-.65-.3-1.01-.26-.55.12-.8.8-.75,1.36s.29,1.11.28,1.68c0,1.51-1.67,2.43-3.12,2.82-3.38.92-6.92.72-10.4.92s-7.13.85-9.8,3.09c2.51,4.39,8.18,5.74,13.24,5.93s10.38-.32,14.9,1.96c.75.45,1.55.8,2.38,1.06,1.83.27,3.66-.47,4.8-1.92,3.08-3.56,1.45-5.76-1.19-8.95-2.59-3.13-5.76-5.74-9.32-7.69Z"></path><path class="cls-15" d="m108.98,240.09c.11,1.23-1.03,2.17-2.06,2.85-1.64,1.18-3.47,2.05-5.41,2.58-2.06.35-4.17.35-6.23,0-1.42-.12-2.82-.4-4.18-.84-1.37-.46-2.53-1.39-3.27-2.62.34.64,10.82-1.47,11.97-1.69,1.99-.36,3.96-.86,5.88-1.49,1.98-.71,3.07-1.41,3.3,1.21Z"></path><ellipse class="cls-42" cx="94.18" cy="231.16" rx="15.02" ry="12.64"></ellipse><ellipse class="cls-26" cx="94.18" cy="231.16" rx="15.02" ry="12.64"></ellipse><circle class="cls-42" cx="80.48" cy="224.52" r="3.97"></circle><circle class="cls-42" cx="91.11" cy="224.38" r="3.97"></circle><circle class="cls-10" cx="80.32" cy="224.88" r="3.46"></circle><circle class="cls-19" cx="91.03" cy="224.66" r="3.46"></circle><circle class="cls-42" cx="86.03" cy="231.81" r="9.35"></circle><circle class="cls-4" cx="86.03" cy="231.81" r="9.35"></circle><ellipse class="cls-36" cx="80.83" cy="233.4" rx="4.26" ry="3.72"></ellipse><ellipse class="cls-42" cx="79.59" cy="233.4" rx="4.26" ry="3.72"></ellipse><ellipse class="cls-5" cx="79.59" cy="233.4" rx="4.26" ry="3.72"></ellipse><circle class="cls-25" cx="77.56" cy="233.43" r=".73"></circle><circle class="cls-8" cx="80.4" cy="233.43" r=".73"></circle><path class="cls-21" d="m94.46,220.61c2.18-1.11,4.72-1.27,7.02-.44,0,0-1.4-.58-2.13-.85-1.43-.38-2.94-.35-4.35.08-2.2.74-2.14.92-2.14.92l1.59.29Z"></path></g><g id="table"><polygon class="cls-42" points="106.87 337.49 422.84 337.49 462.62 356.28 461.87 377.04 61.02 377.04 61.02 357.94 106.87 337.49"></polygon><polygon class="cls-16" points="106.87 337.49 422.84 337.49 462.62 356.28 461.87 377.04 61.02 377.04 61.02 357.94 106.87 337.49"></polygon><rect class="cls-34" x="61.02" y="357.94" width="400.85" height="19.12"></rect></g><g id="character"><path class="cls-22" d="m256.55,339.12c3.55.12,7.32.19,10.4-1.58,1.03-.54,1.88-1.37,2.45-2.39.47-1.14.69-2.37.64-3.61l.34-9.63c.18-5.19.37-10.43-.59-15.54-.87-4.6-2.64-9.03-4.09-13.52-2.22-7.42-3.99-14.96-5.29-22.6-3.37,2.14-6.83,4.32-10.74,5.08-7.32,1.36-14.5-2.32-20.99-5.95l.4,15.86c.13,5.17.26,10.38-.69,15.47-1.64,8.73-13.32,27.38-5.85,35.58,2.76,3.05,9.34,2,12.97,2.12l21.04.7Z"></path><path class="cls-18" d="m231.74,261.37c-.49.44-.94.92-1.34,1.44-.75,1.21-.28,2.82.51,4.01,2.29,2.82,5.34,4.94,8.78,6.11,1.38.31,2.79.46,4.21.43,2.37.05,4.88,0,6.89-1.22,1.31-.92,2.41-2.1,3.23-3.48,1.14-1.59,2.03-3.33,2.65-5.18.05-.14.05-.29,0-.43-.08-.22-.34-.29-.55-.39-1.09-.45-1.49-1.75-1.78-2.89l-1.03-4.24c-.04-.19-.11-.37-.23-.52-.22-.19-.51-.3-.8-.29-3.67-.37-7.36-.51-11.04-.4-1.91.06-3.8.18-5.7.36-1.62.14-1.84.48-2.09,2.1-.25,1.62-.55,3.37-1.7,4.61Z"></path><path class="cls-35" d="m229.47,246.75c.05,2.65.58,5.28,1.56,7.74,1.26,2.54,3.31,4.6,5.83,5.9,2.52,1.28,5.27,2.03,8.09,2.19,2.2.28,4.43-.06,6.44-.98,1.25-.73,2.38-1.65,3.35-2.72,1.16-1.08,2.16-2.32,2.98-3.68.69-1.36,1.18-2.8,1.46-4.3,1.57-7.01,1.99-14.22,1.25-21.36-.08-1.45-.43-2.87-1.03-4.19-.99-1.6-2.33-2.95-3.92-3.95-2.84-2.1-5.87-4.23-9.37-4.75-3.01-.3-6.04.22-8.78,1.5-2.13.81-4.08,2.04-5.72,3.62-2.94,2.98-3.01,6.79-2.9,10.71.1,4.79.39,9.53.75,14.26Z"></path><path class="cls-31" d="m263.21,237.67c.63-.16,1.29.06,1.69.57.33.71.3,1.54-.07,2.23-.86,2.21-2.22,4.43-4.43,5.29-.09.04-.18.06-.28.05-.08-.04-.14-.09-.19-.16-1.02-1.27,0-3.29.36-4.6.36-1.32,1.39-3.01,2.92-3.38Z"></path><path class="cls-39" d="m227.94,238.69c-.37-.36-.81-.64-1.29-.83-.49-.18-1.03-.13-1.48.14-.46.37-.71.94-.68,1.54.05.58.2,1.16.44,1.69l.86,2.22c.12.37.29.71.51,1.03.24.3.52.56.85.77.37.29.8.5,1.25.61.47.11.95-.05,1.27-.4.17-.25.28-.55.3-.86.43-2.19-.34-4.44-2.02-5.91Z"></path><path class="cls-17" d="m229.29,240.52c-.32-4.48.26-8.97,1.69-13.23.19-.75.59-1.43,1.15-1.96,1.15-.92,3.16-.61,3.8-1.91.2-.4.32-1,.77-1.04.25.02.47.13.64.3,2.48,1.96,5.86,2.18,9.02,2.19s6.49-.05,9.2,1.53c.56.29,1.04.71,1.42,1.21.68,1.03.57,2.37.52,3.61-.17,3.97.46,7.94,1.84,11.67l3.86-5.16c.81-.98,1.48-2.07,2.01-3.23.41-1.11.62-2.29.61-3.48.1-2.63-.87-5.2-2.68-7.11-.36-.3-.67-.66-.92-1.07-.19-.49-.29-1.02-.27-1.55-.32-3.14-1.71-6.08-3.93-8.33-3-3.57-7.86-4.96-12.3-3.52-2.66.76-5.23,1.8-7.68,3.09-.53.29-1.11.49-1.7.61-.67.04-1.35,0-2.01-.13-3.98-.33-7.69,1.99-9.15,5.71-1.22,3.37-.29,7.08,0,10.65.12,2,.39,3.98.81,5.94.25,1.04.65,2.03,1.21,2.95.33.46,2.05,1.91,2.08,2.26Z"></path><path class="cls-42" d="m202.5,269.93c-5.32,3.09-9.02,8.28-12.74,13.19-5.57,7.35-11.49,14.43-17.77,21.2s-12.3,13.65-19.72,18.95c-5.01,3.58-10.5,6.49-15.2,10.45,1.05.54,2.27.65,3.45.74,5.39.42,10.78.74,16.18.96,2.75.11,5.51.2,8.26.26,1.98.04,5.53.84,7.12-.66,9.36-6.89,17.98-14.74,25.71-23.42.51,8.1.17,16.23-1.04,24.26-.12.45-.07.93.17,1.33.36.32.83.47,1.31.41l26.26.73c.85-3.41,1.03-6.93,1.76-10.36.76-3.6,2.12-7.04,3.09-10.58,4.45-16.27.67-33.49.35-50.37,0-1.81.21-3.61.61-5.37-1.53-.47-4.02,1.34-5.52,1.84-2.46.81-4.98,1.45-7.53,1.92-5.03,1.05-10.23,1.9-14.73,4.51Z"></path><path class="cls-38" d="m202.5,269.93c-5.32,3.09-9.02,8.28-12.74,13.19-8.72,11.51-18.37,23.64-29.35,33.05-7.37,6.32-15.02,12.33-22.9,18,6.08.71,12.19,1.14,18.3,1.31,3.06.08,6.12.09,9.18.04,2.58-.05,5.49.34,7.7-.96,4.74-2.78,9.1-7.15,13.13-10.85,2.09-1.92,4.14-3.89,6.13-5.91.94-.95,5.91-4.98,5.83-6.21.51,8.1.17,16.23-1.04,24.26-.12.45-.07.93.17,1.33.36.32.83.47,1.31.41l26.26.73c.85-3.41,1.03-6.93,1.76-10.36.76-3.6,2.12-7.04,3.09-10.58,4.45-16.27.67-33.49.35-50.37,0-1.81.21-3.61.61-5.37-1.53-.47-4.02,1.34-5.52,1.84-2.46.81-4.98,1.45-7.53,1.92-5.03,1.05-10.23,1.9-14.73,4.51Z"></path><path class="cls-42" d="m283.24,268.77c1.2.14,2.36.47,3.44,1,1.06.69,1.98,1.58,2.71,2.62,7.03,8.92,12.55,18.91,18.85,28.36s13.57,18.54,23.12,24.67c.69.45,1.47,1,1.5,1.84-.06.6-.32,1.16-.75,1.58l-11.51,13.99c-.37.7-1.24.97-1.94.59-.14-.07-.26-.17-.37-.28-10.38-6.19-19.33-14.44-28.26-22.63l1.42,13.95c.23,1.09.09,2.23-.4,3.23-.92,1.4-2.83,1.56-4.48,1.56l-20.59.09c-1.14.36-2.35-.27-2.71-1.41-.14-.44-.13-.91.02-1.35.53-8.12.75-16.26.64-24.42.03-6.49-.46-12.98-1.47-19.39-.87-4.98-2.24-9.86-3.14-14.83-.68-3.86-1.15-7.75-1.42-11.66-.38-5.03.71-4.53,4.83-2.85,6.59,2.69,13.57,4.12,20.52,5.33Z"></path><path class="cls-37" d="m283.24,268.77c1.2.14,2.36.47,3.44,1,1.06.69,1.98,1.58,2.71,2.62,7.03,8.92,12.55,18.91,18.85,28.36s13.57,18.54,23.12,24.67c.69.45,1.47,1,1.5,1.84-.06.6-.32,1.16-.75,1.58l-11.51,13.99c-.37.7-1.24.97-1.94.59-.14-.07-.26-.17-.37-.28-10.38-6.19-19.33-14.44-28.26-22.63l1.42,13.95c.23,1.09.09,2.23-.4,3.23-.92,1.4-2.83,1.56-4.48,1.56l-20.59.09c-1.14.36-2.35-.27-2.71-1.41-.14-.44-.13-.91.02-1.35.53-8.12.75-16.26.64-24.42.03-6.49-.46-12.98-1.47-19.39-.87-4.98-2.24-9.86-3.14-14.83-.68-3.86-1.15-7.75-1.42-11.66-.38-5.03.71-4.53,4.83-2.85,6.59,2.69,13.57,4.12,20.52,5.33Z"></path><path class="cls-22" d="m239.88,275.18c-2.27,2.48-3.92,5.47-4.82,8.71-2.74-5.3-4.72-10.96-5.87-16.82-.19-.92-1.16-5.36.85-4.14.92.56,1.74,3.73,2.43,4.71.58.83,5.76,4.11,8.21,5.15.51.23-.42,1.99-.79,2.39Z"></path><path class="cls-13" d="m246.41,273.27c-3.37-1.4-9.2-.41-7.99,3.87.42,1.49,2.04,2.35,2.63,3.78.99,2.41-1.28,4.79-2.6,7.04-1.43,2.45-1.79,5.36-2.11,8.17l-4.87,42.15c4.24.87,8.57,1.18,12.89.92.38.02.75-.09,1.06-.31.29-.35.42-.8.37-1.25.17-12.54-1.41-25.13.12-37.57.67-5.44,1.9-11.13-.06-16.24-.37-.98-.87-2.03-.51-3.01s1.23-1.39,1.84-2.08c2.54-2.65,1.42-4.57-.77-5.49Z"></path><path class="cls-22" d="m246.82,272.93c-.45.22-.98.56-.92,1.06.05.22.17.43.33.59,1.93,2.19,3.9,4.34,5.9,6.44.17.23.42.39.7.44.25,0,.49-.1.68-.26,1.7-1.32,2.93-3.14,3.53-5.21.58-2.05.95-4.16,1.1-6.29.14-1.42.62-4.28-.52-5.44-1.4-1.43-2.29,1.05-3.02,2.04-2.03,2.79-4.69,5.06-7.77,6.62Z"></path><path class="cls-42" d="m331.02,354.79l-15.77-3.53c-1.9-.37-3.13-2.21-2.76-4.11.06-.31.17-.62.31-.9l14.79-34.45c1.03-2.27,3.47-3.55,5.93-3.1l15.77,3.56c1.89.36,3.13,2.19,2.76,4.09-.06.32-.17.63-.32.92l-14.79,34.45c-1.04,2.26-3.48,3.53-5.93,3.07Z"></path><path class="cls-24" d="m331.02,354.79l-15.77-3.53c-1.9-.37-3.13-2.21-2.76-4.11.06-.31.17-.62.31-.9l14.79-34.45c1.03-2.27,3.47-3.55,5.93-3.1l15.77,3.56c1.89.36,3.13,2.19,2.76,4.09-.06.32-.17.63-.32.92l-14.79,34.45c-1.04,2.26-3.48,3.53-5.93,3.07Z"></path><path class="cls-42" d="m332.68,356.03l-15.77-3.56c-1.9-.37-3.13-2.21-2.76-4.11.06-.31.17-.62.31-.9l14.79-34.45c1.03-2.27,3.47-3.55,5.93-3.1l15.79,3.61c1.89.36,3.13,2.19,2.76,4.09-.06.32-.17.63-.32.92l-14.79,34.45c-1.05,2.26-3.5,3.52-5.95,3.06Z"></path><path class="cls-6" d="m332.68,356.03l-15.77-3.56c-1.9-.37-3.13-2.21-2.76-4.11.06-.31.17-.62.31-.9l14.79-34.45c1.03-2.27,3.47-3.55,5.93-3.1l15.79,3.61c1.89.36,3.13,2.19,2.76,4.09-.06.32-.17.63-.32.92l-14.79,34.45c-1.05,2.26-3.5,3.52-5.95,3.06Z"></path><path class="cls-14" d="m344.8,339.29c-.41.25-.75.6-1,1.01-.11.49-.15,1-.09,1.5-.06,1.17-.92,2.14-1.26,3.26-.18.62-.2,1.26-.33,1.9-.58,2.17-2.16,3.94-4.25,4.75-2.07.79-4.27,1.19-6.49,1.18-1.86.13-3.73.05-5.58-.23-.81-.06-1.57-.45-2.08-1.08-.45-.98-.14-2.14.75-2.76.89-.58,1.91-.92,2.97-1.01-1.21-.14-1.84-1.7-1.38-2.82.56-1.09,1.61-1.84,2.83-2.02-.23-2.15,1.27-4.1,3.41-4.43.44,0,.88-.07,1.31-.2.52-.32.98-.72,1.37-1.2.92-.71,2.03-1.13,3.19-1.21,2.09-.32,4.98-.97,7.08-.51,1.98.4.69,2.95-.43,3.87Z"></path><path class="cls-23" d="m340.02,331.6c-.92.15-1.82.41-2.67.79-.87.41-1.33,1.36-1.11,2.29.15.32.36.61.63.86.66.93,1.82,1.37,2.93,1.11,1.49-.13,2.98-.29,4.46-.5.87-.03,1.7-.36,2.36-.92.42-.53.7-1.17.81-1.84,1.58-6.07-4.43-2.57-7.4-1.79Z"></path></g><g id="laptop"><path class="cls-32" d="m173.56,355.03h-80.39c-1.58-.01-2.84-1.3-2.83-2.88,0-.31.05-.61.15-.9l3.96-11.68,103.09-3.94c1.55,0,2.01,7.09.61,7.76l-24.58,11.63Z"></path><path class="cls-42" d="m173.56,350.06h-84.38l5.25-15.47,103.09,1.04c.81.04,1.43.72,1.4,1.53-.02.52-.32.99-.79,1.23l-24.56,11.67Z"></path><polygon class="cls-43" points="172.59 348.4 189.57 341.08 166.09 340.53 172.59 348.4"></polygon><path class="cls-42" d="m167.65,350.06h-75.93c-2.43,0-4.49-1.76-4.87-4.16l-8.66-54.93c-.42-2.69,1.42-5.22,4.11-5.64.25-.04.51-.06.77-.06h75.93c2.43,0,4.49,1.77,4.87,4.17l8.65,54.92c.42,2.69-1.42,5.22-4.11,5.64-.25.04-.5.06-.76.06Z"></path><path class="cls-1" d="m167.8,351.92h-78.35c-1.84.02-3.41-1.32-3.68-3.14l-9.04-57.35c-.34-2,1.01-3.91,3.01-4.25.22-.04.44-.05.67-.05h78.37c1.84-.02,3.41,1.32,3.68,3.14l9.04,57.34c.35,2-1,3.91-3,4.25-.23.04-.46.06-.7.05Z"></path></g></svg>