<svg transform="scale(1)" id="_0587_brainstorming_1" xmlns="http://www.w3.org/2000/svg" xmlns:xlink="http://www.w3.org/1999/xlink" viewBox="0 0 500 500" class="show_show__wrapper__graphic__5Waiy "><title>React</title><defs><style>.cls-1{fill:url(#linear-gradient);}.cls-1,.cls-2,.cls-3,.cls-4,.cls-5,.cls-6,.cls-7,.cls-8,.cls-9,.cls-10,.cls-11,.cls-12,.cls-13,.cls-14,.cls-15,.cls-16,.cls-17,.cls-18,.cls-19,.cls-20,.cls-21{stroke-width:0px;}.cls-2{opacity:.18;}.cls-2,.cls-9{isolation:isolate;}.cls-2,.cls-21{fill:#68e1fd;}.cls-3{fill:url(#linear-gradient-11);}.cls-4{fill:url(#linear-gradient-12);}.cls-5{fill:url(#linear-gradient-13);}.cls-6{fill:url(#linear-gradient-10);}.cls-7{fill:url(#linear-gradient-15);}.cls-8{fill:url(#linear-gradient-14);}.cls-9{opacity:.3;}.cls-9,.cls-20{fill:#fff;}.cls-10{fill:url(#linear-gradient-4);}.cls-11{fill:url(#linear-gradient-2);}.cls-12{fill:url(#linear-gradient-3);}.cls-13{fill:url(#linear-gradient-8);}.cls-14{fill:url(#linear-gradient-9);}.cls-15{fill:url(#linear-gradient-7);}.cls-16{fill:url(#linear-gradient-5);}.cls-17{fill:url(#linear-gradient-6);}.cls-18{fill:#473f47;}.cls-19{fill:#6d686d;}</style><linearGradient id="linear-gradient" x1="-382.61" y1="1902.14" x2="-243.95" y2="2287.73" gradientTransform="translate(468 2450) scale(1 -1)" gradientUnits="userSpaceOnUse"><stop offset="0" stop-color="#000"></stop><stop offset=".08" stop-color="#000" stop-opacity=".69"></stop><stop offset=".21" stop-color="#000" stop-opacity=".32"></stop><stop offset="1" stop-color="#000" stop-opacity="0"></stop></linearGradient><linearGradient id="linear-gradient-2" x1="-156.75" y1="2485.71" x2="-141.56" y2="2061.5" xlink:href="#linear-gradient"></linearGradient><linearGradient id="linear-gradient-3" x1="-422.91" y1="2501.44" x2="-219.66" y2="2151.93" xlink:href="#linear-gradient"></linearGradient><linearGradient id="linear-gradient-4" x1="-360.19" y1="2373.94" x2="-347.38" y2="2254.44" xlink:href="#linear-gradient"></linearGradient><linearGradient id="linear-gradient-5" x1="-433.4" y1="2401.07" x2="-316.58" y2="2278.56" xlink:href="#linear-gradient"></linearGradient><linearGradient id="linear-gradient-6" x1="-438.62" y1="2396.1" x2="-321.8" y2="2273.58" xlink:href="#linear-gradient"></linearGradient><linearGradient id="linear-gradient-7" x1="-443.82" y1="2391.12" x2="-327.01" y2="2268.61" xlink:href="#linear-gradient"></linearGradient><linearGradient id="linear-gradient-8" x1="-120.26" y1="2237.74" x2="-105.84" y2="2103.29" xlink:href="#linear-gradient"></linearGradient><linearGradient id="linear-gradient-9" x1="-202.61" y1="2268.26" x2="-71.19" y2="2130.42" xlink:href="#linear-gradient"></linearGradient><linearGradient id="linear-gradient-10" x1="-208.48" y1="2262.66" x2="-77.06" y2="2124.83" xlink:href="#linear-gradient"></linearGradient><linearGradient id="linear-gradient-11" x1="-214.36" y1="2257.06" x2="-82.94" y2="2119.23" xlink:href="#linear-gradient"></linearGradient><linearGradient id="linear-gradient-12" x1="-207.92" y1="2217.33" x2="-207.76" y2="2212.65" xlink:href="#linear-gradient"></linearGradient><linearGradient id="linear-gradient-13" x1="-286.43" y1="2295.14" x2="-213.81" y2="2216.76" xlink:href="#linear-gradient"></linearGradient><linearGradient id="linear-gradient-14" x1="-230.7" y1="2296.31" x2="-229.29" y2="2207.81" gradientTransform="translate(468 2450) scale(1 -1)" gradientUnits="userSpaceOnUse"><stop offset="0" stop-color="#fff"></stop><stop offset="1" stop-color="#f4f2f4"></stop></linearGradient><linearGradient id="linear-gradient-15" x1="-168.13" y1="2205.45" x2="-224.61" y2="2236.86" xlink:href="#linear-gradient"></linearGradient></defs><path class="cls-2" id="background" d="M472.08,270.32c-3.13,51.72-38,105.3-75.84,138.55-27.82,24.42-64.67,24.39-98,12.63-5.53-2-10.79-4.69-15.65-8-9.16-6.08-16.94-13.46-26.62-19.27-1-.58-2-1.14-3-1.69-16.73-9.05-38.28-10.31-56.79-9-19.15,1.32-38.25,5-57.4,3.75-30.09-2.07-58.16-15.93-78.1-38.56-18-20.68-28-47.42-32.46-74.5-7.4-45.09-7.65-91.09,20.76-128.78,1.68-2.22,3.41-4.38,5.19-6.47,29.72-34.88,70.68-49.46,115.17-46.81,28.56,1.7,57.47,5.7,85.55.22,24.75-4.82,47.72-16.81,72.6-20.92,46.5-7.65,95.72,15.1,123,53.5,32.21,45.19,24.69,94.07,21.59,145.35Z"></path><g id="btain"><path class="cls-21" d="M395.05,237.5c-2.57,9.9-12.78,15.49-22,19.92,6.95,5.94,10.39,15.24,10,24.34-.15,6.86-2.69,13.46-7.19,18.64-6.46,7.2-15.88,10.82-24.93,14.2,5.21,6.92,5.6,16.86,1.66,24.5-1.14,2.26-2.69,4.3-4.57,6-1.57,1.4-3.3,2.61-5.16,3.6-.79.43-1.6.83-2.43,1.21-2.72,1.17-5.51,2.15-8.36,2.94-10.49,3.04-21.27,4.96-32.17,5.72-6.5.45-11.2,2.2-13.9,8.81-1.62,3.95-1.92,8.3-2.18,12.56-.67,11.18-1.1,22.37-1.29,33.56-5-3.31-9.56-7-14.27-10.63-3.94-3.1-8.05-5.97-12.32-8.6-2.9-13.38-2-26.14-8.26-39.8-2.13-4.64-4.66-11.82-8.6-15.18-.49-.42-17.52-10.37-15.66-11.24-15.89,7.43-37,.44-45.32-15-9,2.2-18.1,4.42-27.35,4.28-1.54-.02-3.08-.12-4.61-.3-7.73-.87-15.29-3.72-20.75-9.17-6.54-6.54-9.26-17.3-4.84-25.44-12.22-1.73-24.72-5.31-33.8-13.68-9.08-8.37-13.67-22.54-8-33.52.86-1.66,2-3.43,1.6-5.27-.42-1.3-1.16-2.48-2.15-3.43-6.75-7.92-8.56-19.32-6.07-29.41,2.2-8.94,7.46-16.88,14.08-23.34.85-.83,1.73-1.64,2.63-2.43,3.19-2.78,6.65-5.22,10.35-7.28,13.82-7.71,30.68-10.11,44.77-3.37,3.85-12.89,15.93-22.32,29.06-25.29s27-.15,39.3,5.42c19.58-21.38,52.54-23.49,74.68-4.78,4.85,4,5.1,5.32,11.29,4.92,6.49-.42,12.09-2.35,18.78-1.27,8.58,1.39,16.9,6.43,20.55,14.32,13-3.62,27.65,2.27,35.66,13.09s9.56,25.73,5.28,38.5h0c4.76,4.15,9.52,8.46,12.87,13.81s5.21,11.96,3.62,18.09Z"></path><path class="cls-1" d="M261.39,337.27c4.42,21.24,6.73,42.87,6.87,64.56v1c-3.94-3.09-8.05-5.95-12.32-8.56-2.9-13.38-2-26.14-8.26-39.8-2.13-4.64-4.66-11.82-8.6-15.18-.49-.42-17.52-10.37-15.66-11.24-15.89,7.43-37,.44-45.32-15-9,2.2-18.1,4.42-27.35,4.28-1.54-.02-3.08-.12-4.61-.3-7.73-.87-15.29-3.72-20.75-9.17-6.54-6.54-9.26-17.3-4.84-25.44-12.22-1.73-24.72-5.31-33.8-13.68-9.08-8.37-13.67-22.54-8-33.52.86-1.66,2-3.43,1.6-5.27-.42-1.3-1.16-2.48-2.15-3.43-6.75-7.92-8.56-19.32-6.07-29.41,2.2-8.94,7.46-16.88,14.08-23.34-6,12.69-4.07,28.92,5.11,39.6,9.6,11.17,24.86,15.46,39.37,18-10.18,5.09-22.2,4.88-32.21-.54-5.32,11.45-.36,25.06,11.1,30.38,3.06,1.42,6.39,2.15,9.76,2.13-3.38-3.16-4.69-7.95-3.38-12.38,3.7,10.92,13.12,18.9,24.49,20.77-2.5,1.23-5.32,1.69-8.08,1.31-2.42,9,3.78,18.7,12.3,22.37s18.5,2.27,27-1.39c-7.23-5.77-10.53-15.16-8.48-24.18,7.34,15.38,27.1,23.5,43.14,17.74-5.75,9.41-16.47,14.59-27.41,13.25,15.86,11.1,35.43,15.54,54.53,12.37-10.5-14.66-10.49-36,0-50.68-.46,18.75,5.65,37.75,18.15,51.75,12.5,14,31.53,22.16,50.13,20.23-12.69,5.68-26.99,6.67-40.34,2.77Z"></path><path class="cls-11" d="M383.08,281.76c-.15,6.86-2.69,13.46-7.19,18.64-6.46,7.2-15.88,10.82-24.93,14.2,5.21,6.92,5.6,16.86,1.66,24.5-2.87,3.55-6.14,6.77-9.73,9.59-1,.78-1.91,1.53-2.86,2.27.15-.35.3-.71.43-1.06,5-13,0-29.18-11.62-36.95-10.47,4.53-22.05,5.91-33.29,3.95,6.13-1.79,12.79-.73,19-2.34s12.16-7.92,9.65-13.79c-2.16-5-9.32-6.7-11-11.93-11.22,3.21-23.3.45-32-7.32,5.38,2.44,11.32,3.39,17.2,2.75,4.65-.51,9.79-2.63,11.15-7.1.5-1.9.43-3.9-.2-5.76-2.1-6.79-8.76-11.15-15.41-13.63s-13.85-3.68-20.11-7.07c-5.72-3.14-10.35-7.94-13.28-13.77,3.5,6.51,8.66,7.57,16.5,8.07,11.29.73,20.65,3.1,31.57-1.92,10.4-4.8,18.62-13.59,24.22-23.58,3,16.91-9.38,35-26.21,38.44,1.66,6.15,8.88,8.86,15.22,9.4,7.92.66,15.89-.57,23.24-3.61-6.65,9.89-16.03,17.64-27,22.3,6.93,14.18,26.37,18.13,41.29,13,9.43-3.31,17.67-9.32,23.7-17.28Z"></path><path class="cls-9" d="M378.53,205.54h0c-.1.17-.23.34-.35.51,2.16-10.92-.14-22.94-7.3-31.46s-19.38-12.9-30-9.6c5.2,5.34,10.49,10.8,13.85,17.46s4.61,14.82,1.38,21.59c2.1-17.55-10.42-33.48-27.97-35.58-2.75-.33-5.54-.3-8.28.09,4.96-3.75,10.63-6.45,16.66-7.95-18.84-11.88-45.06-10.61-62.66,3.06,3.68-9.43,10.71-17.16,19.75-21.71-16-7.51-34.07-13.18-51.34-9.21-7.89,1.81-16.15,6.7-17.62,14.66,9.21-.77,18.45,1.23,26.52,5.74-9.69-1-19.5-2-29.14-.61s-19.25,5.29-25.65,12.63c2.4-8.79,8.71-15.98,17.1-19.52-8.86-4-18.21-7.4-27.93-7.79s-19.94,2.61-26.53,9.76c-6.59,7.15-8.55,18.83-3.05,26.85,12.59-2.25,25.48,1.78,34.54,10.81-14.6-4.74-29.9-6.94-45.24-6.48-8.9.27-18.49,1.76-24.82,8,7.16-8.35,18.85-10.85,29.67-12.87-1.22,0-6.4-4-7.57-4.65-2.66-1.35-5.41-2.51-8.24-3.46-5.95-1.99-12.15-3.1-18.42-3.29-2.31-.07-10.56,1.6-16.73,1.46,13.82-7.71,30.68-10.11,44.77-3.37,3.85-12.89,15.93-22.32,29.06-25.29s27-.15,39.3,5.42c19.58-21.38,52.54-23.49,74.68-4.78,4.85,4,5.1,5.32,11.29,4.92,6.49-.42,12.09-2.35,18.78-1.27,8.58,1.39,16.9,6.43,20.55,14.32,13-3.62,27.65,2.27,35.66,13.09s9.56,25.75,5.28,38.52Z"></path><path class="cls-12" d="M218.95,204.04c10.24-2,20.81-1.4,31.16-.1-11.25-7.14-25-10.8-38.13-8.41s-25.24,11.34-29.85,23.85c-9.61-6.51-21.16-9.52-32.72-8.52,11.73,1.26,22.19,7.92,28.31,18-3.76-1.41-8.06-.65-11.66,1.13s-6.63,4.52-9.62,7.21c14.18-5.44,29.67-6.48,44.45-3-2.11-2.25-4.62-4.1-7.39-5.45-2.14-1.05-6.56-1.16-8.25-2.52-3.09-2.48-.26-4.05,2.53-6.22,9.32-7.25,19.4-13.74,31.17-15.97Z"></path></g><g id="storm"><path class="cls-20" d="M422.69,146.19c-4.62,1.05-8.08,4.89-8.65,9.6-3.38-2.09-7.82-1.05-9.91,2.33-1.24,2.01-1.42,4.5-.48,6.67-3.55.7-7.3-.18-10.8.75-4.44,1.18-7.6,5-10.46,8.59,23.54.78,47.06,2,70.54,3.82h.87c-3.71-5.18-9.87-8.03-16.22-7.51,1.57-.51,2.97-1.48,4-2.77,1.35-2.12.52-5.09-1.27-6.85s-4.28-2.59-6.71-3.24c3.62,1,.17-7.12-.55-7.93-2.62-2.86-6.54-4.17-10.36-3.46Z"></path><polygon class="cls-21" points="419.82 173.52 408.84 193.15 423.62 193.15 403.57 222.49 440.71 188.72 424.89 187.03 436.49 175.63 419.82 173.52"></polygon></g><g id="bubble_chat_2"><g id="approval"><path class="cls-10" d="M158.73,131.81v35.32c0,3.18-2.57,5.76-5.75,5.77,0,0,0,0-.01,0h-26.23c-2.06,0-3.97,1.1-5,2.88l-.32.55c-1.59,2.76-5.12,3.7-7.88,2.11-.97-.56-1.75-1.39-2.26-2.38h0c-.98-1.94-2.97-3.16-5.15-3.16h-27.73c-3.19,0-5.77-2.58-5.77-5.77h0v-35.32c0-3.18,2.58-5.76,5.76-5.76,0,0,0,0,.01,0h74.57c3.18,0,5.76,2.58,5.76,5.76Z"></path><path class="cls-20" d="M158.73,129.78v26.72c0,5.56-4.49,10.06-10.05,10.07h-19.45c-3.59,0-6.91,1.9-8.72,5l-4.4,7.63-3.63-7.15c-1.72-3.39-5.2-5.52-9-5.51h-20.78c-5.56,0-10.07-4.51-10.07-10.07v-26.69c0-5.56,4.5-10.06,10.06-10.06h66.01c5.55.01,10.04,4.51,10.03,10.06Z"></path></g><rect class="cls-16" x="96.69" y="132.38" width="37.99" height="3.17"></rect><rect class="cls-17" x="96.69" y="142.83" width="37.99" height="3.17"></rect><rect class="cls-15" x="96.69" y="153.27" width="37.99" height="3.17"></rect></g><g id="bubble_chat_1"><g id="approval-2"><path class="cls-13" d="M405.03,274.99v39.74c0,3.58-2.9,6.48-6.48,6.48h-29.51c-2.32,0-4.46,1.24-5.62,3.25l-.35.62c-1.79,3.1-5.76,4.17-8.87,2.38-1.09-.63-1.98-1.56-2.54-2.69h0c-1.11-2.18-3.34-3.56-5.79-3.56h-31.22c-3.58,0-6.48-2.9-6.49-6.48v-39.74c0-3.58,2.91-6.48,6.49-6.48h83.9c3.58,0,6.48,2.9,6.48,6.48h0Z"></path><path class="cls-20" d="M405.03,272.71v30.05c0,6.25-5.06,11.32-11.31,11.33h-21.88c-4.05,0-7.79,2.16-9.81,5.67l-4.95,8.58-4.08-8c-1.93-3.81-5.83-6.21-10.1-6.21h-23.41c-6.26,0-11.33-5.07-11.33-11.33v-30.09c0-6.26,5.07-11.33,11.33-11.33h74.22c6.25,0,11.32,5.07,11.32,11.32h0Z"></path></g><rect class="cls-14" x="335.23" y="275.63" width="42.74" height="3.56"></rect><rect class="cls-6" x="335.23" y="287.38" width="42.74" height="3.56"></rect><rect class="cls-3" x="335.23" y="299.14" width="42.74" height="3.56"></rect></g><g id="lamp"><path class="cls-4" d="M259.85,235.5c.22.49.47,1,.7,1.43-.21-.45-.47-.92-.7-1.43Z"></path><path class="cls-5" d="M253.34,227.99c-2.62,2.31-4.42,5.4-5.13,8.82l-2,9.79-4.89.23-11.29.53-3.69-11.76c-.92-2.89-2.62-5.48-4.91-7.47h0c-9.94-8.77-10.9-23.93-2.13-33.87,8.77-9.94,23.93-10.9,33.87-2.13,9.94,8.77,10.9,23.93,2.13,33.87-.62.71-1.29,1.38-1.99,2.01l.03-.02Z"></path><path class="cls-8" d="M254.09,222.8c-2.62,2.31-4.42,5.41-5.13,8.83l-2,9.79-4.89.23-11.29.52-3.63-11.75c-.91-2.9-2.61-5.48-4.91-7.47h0c-9.94-8.77-10.9-23.93-2.13-33.87,8.77-9.94,23.93-10.9,33.87-2.13,9.94,8.77,10.9,23.93,2.13,33.87-.62.71-1.29,1.38-1.99,2.01l-.03-.03Z"></path><path class="cls-7" d="M254.09,222.8c-2.62,2.31-4.42,5.41-5.13,8.83l-2,9.79-4.89.23c-3.35-4.83-5.56-11.49,3.21-15.54,13.47-6.21,13.43-29.19,13.29-33.78,6.08,9.9,4.19,22.74-4.48,30.47h0Z"></path><path class="cls-19" d="M234.36,247.93h9.1c1.43,0,2.59,1.16,2.59,2.59h0c0,1.43-1.16,2.59-2.59,2.59h-9.1c-1.43,0-2.59-1.16-2.59-2.59h0c0-1.43,1.16-2.59,2.59-2.59Z"></path><path class="cls-18" d="M229.53,240.01h17.85c1.16,0,2.1.94,2.1,2.1h0c0,1.16-.94,2.1-2.1,2.1h-17.85c-1.16,0-2.1-.94-2.1-2.1h0c0-1.16.94-2.1,2.1-2.1Z"></path><path class="cls-19" d="M229.53,243.37h17.85c1.16,0,2.1.94,2.1,2.1h0c0,1.16-.94,2.1-2.1,2.1h-17.85c-1.16,0-2.1-.94-2.1-2.1h0c0-1.16.94-2.1,2.1-2.1Z"></path><path class="cls-18" d="M229.53,245.69h17.85c1.16,0,2.1.94,2.1,2.1h0c0,1.16-.94,2.1-2.1,2.1h-17.85c-1.16,0-2.1-.94-2.1-2.1h0c0-1.16.94-2.1,2.1-2.1Z"></path><path class="cls-21" d="M240.18,217.44l-.37-.49c-1.51-2.27-1.45-5.25.16-7.45.55-.77,1.23-1.45,2-2-.85-.55-1.85-.83-2.86-.78-.88,0-1.76.18-2.58.51.67,1.19.99,2.55.92,3.92-.05,1.99-.99,3.86-2.56,5.08-.5.47-1.22.62-1.87.4-.36-.16-.65-.42-.85-.76-1.43-2.29-1.31-5.22.3-7.38.48-.67,1.08-1.25,1.76-1.72-1.17-.93-2.68-1.33-4.16-1.11-1.58.16-3.01.99-3.93,2.28l-1.25-.83c1.16-1.66,2.99-2.73,5-2.94,1.96-.29,3.96.29,5.46,1.59l.26.24c1.1-.49,2.28-.76,3.48-.78,1.55-.06,3.06.45,4.25,1.45.92-.44,1.88-.78,2.88-1,2.74-.83,5.71-.4,8.1,1.17l-.9,1.2c-1.65-1.25-4.15-1.58-6.85-.92-.81.19-1.6.48-2.35.84l.15.41c.22.9.22,1.84,0,2.74-.57,3.22-1.77,5.23-3.66,6.14l-.53.19ZM242.93,208.65c-.67.46-1.26,1.04-1.73,1.71-1.08,1.49-1.29,3.43-.55,5.11,1.11-.82,1.85-2.37,2.26-4.7.16-.67.16-1.38,0-2.05,0,0,.03-.05.02-.07ZM235.23,207.88c-.59.39-1.1.87-1.52,1.44-1.22,1.67-1.33,3.9-.27,5.68.11.16.16.2.18.2.15-.04.29-.11.41-.21,1.21-.96,1.92-2.41,1.95-3.95.06-1.1-.2-2.2-.75-3.16Z"></path></g></svg>