<svg transform="scale(1)" id="_0708_Data_Cloud_2" xmlns="http://www.w3.org/2000/svg" xmlns:xlink="http://www.w3.org/1999/xlink" viewBox="0 0 500 500" class="show_show__wrapper__graphic__5Waiy "><title>React</title><defs><style>.cls-1{fill:url(#linear-gradient);}.cls-1,.cls-2,.cls-3,.cls-4,.cls-5,.cls-6,.cls-7,.cls-8,.cls-9,.cls-10,.cls-11,.cls-12,.cls-13,.cls-14,.cls-15,.cls-16,.cls-17,.cls-18,.cls-19{stroke-width:0px;}.cls-2{isolation:isolate;opacity:.18;}.cls-2,.cls-19{fill:#68e1fd;}.cls-3{fill:url(#linear-gradient-11);}.cls-4{fill:url(#linear-gradient-12);}.cls-5{fill:url(#linear-gradient-13);}.cls-6{fill:url(#linear-gradient-10);}.cls-7{fill:url(#linear-gradient-15);}.cls-8{fill:url(#linear-gradient-14);}.cls-9{fill:url(#linear-gradient-4);}.cls-10{fill:url(#linear-gradient-2);}.cls-11{fill:url(#linear-gradient-3);}.cls-12{fill:url(#linear-gradient-8);}.cls-13{fill:url(#linear-gradient-9);}.cls-14{fill:url(#linear-gradient-7);}.cls-15{fill:url(#linear-gradient-5);}.cls-16{fill:url(#linear-gradient-6);}.cls-17{fill:#231f20;}.cls-18{fill:#fff;}</style><linearGradient id="linear-gradient" x1="303.79" y1="245.15" x2="460.07" y2="194.92" gradientUnits="userSpaceOnUse"><stop offset="0" stop-color="#000"></stop><stop offset=".08" stop-color="#000" stop-opacity=".69"></stop><stop offset=".21" stop-color="#000" stop-opacity=".32"></stop><stop offset="1" stop-color="#000" stop-opacity="0"></stop></linearGradient><linearGradient id="linear-gradient-2" x1="236.44" y1="240.39" x2="64.16" y2="203.93" gradientUnits="userSpaceOnUse"><stop offset="0" stop-color="#000"></stop><stop offset=".08" stop-color="#000" stop-opacity=".69"></stop><stop offset=".43" stop-color="#000" stop-opacity=".32"></stop><stop offset="1" stop-color="#000" stop-opacity="0"></stop></linearGradient><linearGradient id="linear-gradient-3" x1="42.02" y1="110.98" x2="173.09" y2="302.68" gradientTransform="translate(-8.91 5.6) rotate(-2.25)" xlink:href="#linear-gradient"></linearGradient><linearGradient id="linear-gradient-4" x1="136.28" y1="200.93" x2="231.17" y2="283.9" xlink:href="#linear-gradient-2"></linearGradient><linearGradient id="linear-gradient-5" x1="116.41" y1="261.57" x2="118.64" y2="238.31" gradientTransform="translate(-8.91 5.6) rotate(-2.25)" xlink:href="#linear-gradient"></linearGradient><linearGradient id="linear-gradient-6" x1="135.96" y1="238.32" x2="223.4" y2="233.48" xlink:href="#linear-gradient"></linearGradient><linearGradient id="linear-gradient-7" x1="80.79" y1="132.06" x2="93.05" y2="295.72" gradientTransform="translate(-8.91 5.6) rotate(-2.25)" xlink:href="#linear-gradient"></linearGradient><linearGradient id="linear-gradient-8" x1="110.21" y1="190.79" x2="156.19" y2="252.69" xlink:href="#linear-gradient"></linearGradient><linearGradient id="linear-gradient-9" x1="325.27" y1="109.54" x2="457.94" y2="303.56" gradientTransform="translate(807.57) rotate(-180) scale(1 -1)" xlink:href="#linear-gradient"></linearGradient><linearGradient id="linear-gradient-10" x1="397.94" y1="144.45" x2="408.41" y2="284.22" gradientTransform="translate(807.57) rotate(-180) scale(1 -1)" xlink:href="#linear-gradient"></linearGradient><linearGradient id="linear-gradient-11" x1="144.79" y1="52.07" x2="327.62" y2="319.45" xlink:href="#linear-gradient"></linearGradient><linearGradient id="linear-gradient-12" x1="260.31" y1="267.83" x2="264.77" y2="221.22" xlink:href="#linear-gradient"></linearGradient><linearGradient id="linear-gradient-13" x1="249.86" y1="81.86" x2="266.61" y2="305.4" xlink:href="#linear-gradient"></linearGradient><linearGradient id="linear-gradient-14" x1="302.21" y1="430.27" x2="253.82" y2="401.73" gradientTransform="translate(397.06 -85.48) rotate(50.02)" gradientUnits="userSpaceOnUse"><stop offset="0" stop-color="#000"></stop><stop offset=".08" stop-color="#000" stop-opacity=".69"></stop><stop offset=".37" stop-color="#000" stop-opacity=".32"></stop><stop offset="1" stop-color="#000" stop-opacity="0"></stop></linearGradient><linearGradient id="linear-gradient-15" x1="335.35" y1="385.67" x2="260.57" y2="400.25" xlink:href="#linear-gradient-14"></linearGradient></defs><path class="cls-2" id="background" d="M475.17,373.89c-11.17,19.83-26.52,37.01-44.61,48.47-11.98,7.58-24.63,13.71-37.88,18.38-4.25,1.51-8.55,2.86-12.92,4.06-2.03.57-4.07,1.1-6.12,1.59-10.61,2.55-21.36,4.32-32.19,5.51-6.07.67-12.17,1.16-18.28,1.5-11.17.64-22.38.79-33.56.68-2.38-.02-4.76-.05-7.13-.09-.85-.02-1.7-.03-2.55-.05-1.66-.03-3.31-.07-4.96-.12-5.9-.15-11.81-.37-17.71-.69-39.31-2.04-78.55-7.93-114.55-23.47-13.72-5.93-26.81-13.2-39.37-21.31-3.26-2.1-6.49-4.26-9.68-6.47-3.6-2.48-7.15-5.02-10.66-7.62-8.27-6.12-16.39-12.55-24.04-19.46-11.73-10.59-22.37-22.29-30.8-35.63-20.83-32.94-26.52-75.05-15.19-112.34,11.33-37.3,39.48-69.12,75.12-84.91,16.11-7.15,33.64-11.17,48.88-20.03,21.58-12.55,36.75-33.65,56.66-48.71,25.36-19.17,57.79-27.73,89.57-27.27,31.79.46,63.01,9.48,91.94,22.64,17.6,8.01,34.84,17.84,47.59,32.37,23.54,26.86,28.06,64.81,40.12,98.43,9.61,26.78,24.53,51.84,30.04,79.76,6.08,30.86-1.32,65.68-17.72,94.78Z"></path><g id="storages"><polygon class="cls-19" points="360.87 149.44 322.61 164.1 322.61 304.2 365.31 302.75 360.87 149.44"></polygon><polygon class="cls-1" points="360.87 149.44 322.61 164.1 322.61 304.2 365.31 302.75 360.87 149.44"></polygon><polygon class="cls-19" points="158.86 149.53 201.56 168.45 206.89 304.2 164.75 299.65 158.86 149.53"></polygon><polygon class="cls-10" points="158.86 149.53 201.56 168.45 206.89 304.2 164.75 299.65 158.86 149.53"></polygon><polygon class="cls-19" points="158.86 149.53 76.45 165.16 81.72 299.53 165.1 308.65 158.86 149.53"></polygon><polygon class="cls-11" points="154.77 157.47 79.85 170.66 84.68 293.78 160.41 301.06 154.77 157.47"></polygon><polygon class="cls-9" points="135.83 207.83 156.65 205.33 157.11 217.11 135.4 213.57 135.83 207.83"></polygon><polygon class="cls-19" points="77.07 253.48 83.21 259.08 158.86 260.64 140.84 253.48 77.07 253.48"></polygon><polygon class="cls-15" points="77.07 253.48 83.21 259.08 158.86 260.64 138.61 253.04 77.07 253.48"></polygon><polygon class="cls-19" points="140.18 214.5 157.11 217.11 158.86 260.64 141.03 256.84 140.18 214.5"></polygon><polygon class="cls-16" points="140.18 214.5 157.11 217.11 158.86 260.64 141.03 256.84 140.18 214.5"></polygon><polygon class="cls-19" points="141.94 259.39 40.71 258.24 38.83 210.41 139.64 200.66 141.94 259.39"></polygon><polygon class="cls-14" points="132.37 253.01 45.38 253.04 43.9 215.2 130.6 207.83 132.37 253.01"></polygon><path class="cls-19" d="M98.53,225.58l-25.41,1.4h0c-.12-2.93,1.76-5.44,4.22-5.6l16.16-1.07c2.65-.18,4.92,2.18,5.04,5.27h0Z"></path><path class="cls-19" d="M126.98,182.59l-20.13,2.73h0c-.09-2.34,1.41-4.47,3.37-4.75l12.8-1.85c2.08-.3,3.86,1.43,3.96,3.87h0Z"></path><path class="cls-19" d="M130.6,274.88l-20.28-1.01h0c-.09-2.34,1.42-4.18,3.4-4.1l12.9.53c2.1.09,3.89,2.13,3.99,4.58h0Z"></path><polygon class="cls-12" points="139.64 200.66 135.4 201.07 139.07 259.39 141.94 259.39 139.64 200.66"></polygon><polygon class="cls-19" points="360.87 149.44 444.83 161.97 444.83 298.07 360.87 310.61 360.87 149.44"></polygon><polygon class="cls-13" points="365.31 157.3 441.61 167.67 441.61 292.38 365.31 302.75 365.31 157.3"></polygon><polygon class="cls-19" points="361.49 252.24 444.2 248.06 444.2 208.9 361.49 204.16 361.49 252.24"></polygon><polygon class="cls-6" points="365.31 247.45 441.61 244.58 441.61 212.38 365.31 209.01 365.31 247.45"></polygon><path class="cls-19" d="M395.89,223.21l20.82.33h0c0-2.4-1.62-4.39-3.63-4.44l-13.24-.36c-2.17-.06-3.95,1.94-3.95,4.47h0Z"></path><path class="cls-19" d="M394.42,181.6l20.47,1.96h0c0-2.37-1.6-4.46-3.6-4.67l-13.02-1.36c-2.12-.22-3.85,1.6-3.85,4.08h0Z"></path><path class="cls-19" d="M394.42,275.09l20.47-1.82h0c0-2.37-1.6-4.17-3.6-4.01l-13.02,1.04c-2.12.17-3.85,2.31-3.85,4.79h0Z"></path><path class="cls-18" d="M57.38,300.58c2.59-10.18,12.56-17.16,22.86-19.21,10.3-2.05,20.94-.05,31.17,2.32,13.45,3.12,27.69,7.47,36.26,18.3,6.53-5.97,16.26-7.62,24.88-5.63s16.2,7.24,22.42,13.53c1.26,1.28,2.57,2.66,4.3,3.14,1.9.54,3.9-.11,5.84-.42,4.01-.63,8.08.2,12.05,1.03,18.33,3.81,36.66,7.62,54.98,11.43.96.2,2.01.45,2.6,1.24,1.3,1.73-.73,4.08-2.75,4.87-3.09,1.21-6.51,1.18-9.84,1.14-76.68-.98-153.36-1.96-230.04-2.93-2.16-.03-4.42-.08-6.32-1.11-3.62-1.96-4.63-6.58-5.27-10.64-1.68-10.74-2.67-23.55,5.57-30.65,5.01-4.31,12.34-5.13,18.74-3.49s12.03,5.42,17.22,9.5c3.58,2.82,4.92-4.52,7.73-8.1"></path><rect class="cls-19" x="195.08" y="123.36" width="130.04" height="194.69"></rect><rect class="cls-3" x="200.94" y="132.13" width="118.33" height="177.14"></rect><polygon class="cls-19" points="189.77 251.36 200.75 259.36 322.33 259.36 333.77 253.68 189.77 251.36"></polygon><polygon class="cls-4" points="189.77 251.36 200.75 259.36 322.33 259.36 333.77 253.68 189.77 251.36"></polygon><rect class="cls-19" x="182.8" y="183.36" width="157.4" height="70.33"></rect><rect class="cls-5" x="192.02" y="191" width="136.16" height="55.03"></rect><path class="cls-19" d="M249.77,203.17h25.4c4,0,7.26,3.25,7.26,7.26h-39.91c0-4,3.25-7.26,7.26-7.26Z"></path><path class="cls-19" d="M252.38,152.57h20.18c3.18,0,5.77,2.58,5.77,5.77h-31.72c0-3.18,2.58-5.77,5.77-5.77Z"></path><path class="cls-19" d="M252.38,272.98h20.18c3.18,0,5.77,2.58,5.77,5.77h-31.72c0-3.18,2.58-5.77,5.77-5.77Z"></path><path class="cls-18" d="M294.51,293.9c12.3,3.01,24.54,6.31,36.69,9.9,3.46-9.27,8.45-19.89,18.17-21.7,4.18-.78,8.45.32,12.56,1.41,7.05,1.87,14.1,3.73,21.15,5.6,1.01-9.2,8.78-16.62,17.56-19.55,8.78-2.93,18.37-2.11,27.45-.3,6.63,1.32,13.29,3.2,18.94,6.92,5.65,3.72,10.23,9.51,11.17,16.21,9.73-1.56,20.44-1.26,28.45,4.48,8.01,5.74,11.46,18.39,4.89,25.73-3.55,3.96-8.99,5.54-14.19,6.68-19.68,4.31-39.98,4.82-60.12,4.68-31.72-.22-63.41-2.02-95.09-3.82-9.55-.54-84.93-1.3-84.52-8.88.23-4.29,17.82-15.84,22.08-19.03,10.83-8.11,21.49-11.58,34.81-8.31Z"></path></g><g id="folder"><polygon class="cls-17" points="241.78 375.5 198.88 375.14 212.91 416.16 257.66 384.92 258.06 381.36 241.78 375.5"></polygon><polygon class="cls-18" points="226.75 385.81 242.42 355.61 289.15 358.52 268.35 391.4 226.75 385.81"></polygon><polygon class="cls-8" points="226.75 385.81 232.14 375.42 249.78 376.93 256.21 370.09 281.5 370.62 268.35 391.4 226.75 385.81"></polygon><path class="cls-19" d="M223.78,381.76l28.41-.73,5.11-6.66,27.04,4.32-17.17,39.85-54.26-2.37s9.83-33.02,10.87-34.4Z"></path><polygon class="cls-7" points="252.18 381.03 276.68 384.42 284.33 378.68 257.29 374.37 252.18 381.03"></polygon></g><g id="cloud_2_2"><path class="cls-2" d="M396.23,113.52c.04-.45.07-.9.07-1.35,0-8.62-6.99-15.61-15.61-15.61-5.98,0-11.16,3.36-13.78,8.29-.98-.31-2.02-.48-3.1-.48-5.27,0-9.61,3.95-10.24,9.05h-1.11c-6.77,0-12.26,5.49-12.26,12.26s5.49,12.26,12.26,12.26h42.32c6.77,0,12.26-5.49,12.26-12.26,0-6.28-4.72-11.45-10.81-12.17Z"></path><path class="cls-18" d="M408.75,123.45c0,5.12-3.14,9.51-7.6,11.34-1.44.59-3.01.92-4.66.92h-42.32c-6.77,0-12.26-5.49-12.26-12.26s5.49-12.26,12.26-12.26h1.11c.63-5.1,4.97-9.05,10.24-9.05,1.08,0,2.12.17,3.1.48,2.62-4.93,7.81-8.29,13.78-8.29,8.62,0,15.61,6.99,15.61,15.61,0,.45-.03.9-.07,1.35,6.08.72,10.81,5.89,10.81,12.17Z"></path></g><g id="cloud_1"><path class="cls-2" d="M189.1,113.18c.03-.31.05-.63.05-.95,0-6.06-4.91-10.97-10.97-10.97-4.2,0-7.84,2.36-9.69,5.83-.69-.22-1.42-.33-2.18-.33-3.7,0-6.75,2.78-7.19,6.36h-.78c-4.76,0-8.62,3.86-8.62,8.62s3.86,8.62,8.62,8.62h29.74c4.76,0,8.62-3.86,8.62-8.62,0-4.41-3.32-8.04-7.59-8.55Z"></path><path class="cls-18" d="M197.9,120.16c0,3.6-2.21,6.68-5.34,7.97-1.01.42-2.12.65-3.28.65h-29.74c-4.76,0-8.62-3.86-8.62-8.62s3.86-8.62,8.62-8.62h.78c.44-3.58,3.49-6.36,7.19-6.36.76,0,1.49.12,2.18.33,1.84-3.47,5.49-5.83,9.69-5.83,6.06,0,10.97,4.91,10.97,10.97,0,.32-.02.63-.05.95,4.27.51,7.59,4.14,7.59,8.55Z"></path></g><path class="cls-18" id="paper" d="M265.46,103.5c-1.45-1.6-2.81-3.29-4.35-4.81-.78-.77-1.6-1.5-2.5-2.14-.54-.38-1.81-.68-1.86-1.46-.06-1.12,2.65-1.41,3.44-1.66,1.57-.49,3.15-.98,4.65-1.67,6.69-3.08,11.19-10.41,10.89-17.77,9.96,2.6,19.27,7.68,26.84,14.65.23.21.48.46.53.77.05.31-.1.61-.25.89-1.42,2.68-2.86,5.37-4.78,7.72-5.61,6.87-14.52,9.93-22.98,12.59-.42.13-.86.26-1.29.17-.35-.08-.65-.29-.94-.51-2.68-2.02-5.17-4.3-7.43-6.79Z"></path></svg>