<?xml version="1.0" encoding="UTF-8"?>
<svg id="Layer_2" data-name="Layer 2" xmlns="http://www.w3.org/2000/svg" viewBox="0 0 149.62 149.62">
  <defs>
    <style>
      .cls-1 {
        fill: #fff;
      }

      .cls-2 {
        fill: #4076c6;
      }
    </style>
  </defs>
  <g id="Layer_2-2" data-name="Layer 2">
    <g id="Layer_2-2" data-name="Layer 2-2">
      <circle class="cls-2" cx="74.81" cy="74.81" r="74.81"/>
      <g id="Layer_1-2" data-name="Layer 1-2">
        <path class="cls-1" d="M36.04,138.78c-.05-12.02-.12-24.04-.14-36.06-.02-11.19,.05-22.4-.05-33.59-.11-12.07,4.48-22.03,13.41-29.96,6.22-5.52,13.55-8.84,21.87-9.84,9.3-1.11,17.95,.79,25.97,5.61,.25,.14,.5,.28,.75,.42,1.59,1.38,3.36,2.52,4.9,3.95,6.76,6.22,11.13,13.76,12.53,22.88,2.52,16.48-5.02,32.98-20.26,40.35-4.38,2.12-9,3.49-13.9,3.42-6.43-.11-12.43,1.09-17.83,5.25v-24.31c2.65,0,5.45,.02,8.25,0,2.97-.04,5.94,.2,8.89-.42,7.46-1.59,13.25-7.53,14.66-15.13,1.49-8.05-2.16-16.11-9.2-20.27-8.57-5.08-19.73-2.71-25.53,5.42-2.36,3.3-3.8,6.91-3.81,11-.02,9,0,18.01,0,27.03,0,7.32-.02,14.63,.02,21.94,0,1.1-.32,1.85-1.14,2.56-6.19,5.43-11.8,11.43-17.34,17.51-.69,.75-1.18,1.7-2.08,2.26h0l.02-.02Z"/>
      </g>
    </g>
  </g>
</svg>