<?xml version="1.0" encoding="UTF-8"?>
<svg id="Layer_2" data-name="Layer 2" xmlns="http://www.w3.org/2000/svg" viewBox="0 0 420.41 417.73">
  <defs>
    <style>
      .cls-1 {
        fill: #9b5cdc;
      }

      .cls-2 {
        fill: #f97fe7;
      }

      .cls-3 {
        fill: #1b284c;
      }

      .cls-4 {
        fill: #fbfdfc;
      }

      .cls-5 {
        fill: #39f8e6;
      }
    </style>
  </defs>
  <g id="Layer_1-2" data-name="Layer 1">
    <g>
      <path class="cls-1" d="M23.42,187.59c3.32-18.54,7.81-36.72,15.83-53.9,2.2-4.72,5.15-7.29,10.48-6.54-3.85,8.46-5.84,17.45-7.36,26.54-1.59,9.49-.52,19.02-.09,28.55,.11,2.5,.82,4.32,2.98,5.54-6.9,6.67-13.44,13.78-22.36,17.91-.72-6.06-.08-12.07,.53-18.09Z"/>
      <path class="cls-1" d="M349.41,138.98c9.9-1.49,19.97-1.74,29.71-4.32,1.92-.51,2.15,1.35,2.68,2.48,3.46,7.34,6.12,14.97,8,22.87,.9,3.77,2.1,7.39,4.5,10.51,.47,6.22,.94,12.44,1.41,18.66-6.52-.62-12.32-3.2-17.83-6.55,1.5-10.3,1.26-20.64-.96-30.71-.99-4.48-1.43-11.66-7.64-11.48-6.78,.19-13.19-2.06-19.86-1.45Z"/>
      <path class="cls-2" d="M296.88,247.15c-12.94-.32-23.32,5.22-32.26,14.07-6.82,1.7-13.56,4.22-20.48,4.94-23.04,2.39-46.12,3.43-69.1-1.03-6.29-1.22-12.64-2.11-18.97-3.15-12.95-13.38-28.37-17.71-46.35-12.6,3.13-3.97-1.39-3.21-2.65-3.83-10.53-5.17-20.44-11.15-29.52-18.71-6.67-5.55-12.63-11.73-18.69-17.86,6.87-8.48,14.55-16.27,20.55-25.5,10.93-16.8,16.83-35.8,24.01-54.21,2.16-5.54,4.86-6.96,10.6-6.54,37.45,2.76,74.68,7.48,111.98,11.55,27.39,2.99,54.79,6.02,82.39,6.32,2.1,.02,3.68,.12,4.67,2.55,10.74,26.25,28.02,46.84,52.96,60.73,.19,.11,.27,.4,.41,.6-4.53,7.78-11.68,13.14-18.47,18.51-15.08,11.93-29.81,25.15-51.1,24.16Zm-170.74-29.59c15.08,.62,27.88-10.28,28.48-24.27,.69-16.06-9.96-28.44-25.05-29.11-15-.66-26.75,10.91-27.74,26.56-.71,11.18,9.62,26.58,24.32,26.81Zm165.38-53.32c-14.84,.57-26.14,12.45-25.71,27.03,.43,14.85,12.96,26.94,27.23,26.26,15.1-.71,26.25-12.7,25.59-27.53-.65-14.65-12.92-26.31-27.11-25.77Zm-81.48,66.86c4.61-.21,8.81-.72,12.83-2.23,10.71-4.03,18.92-13.79,18.64-22.13-.15-4.23-2.09-7.24-6.28-8.21-3.68-.85-6.79,.45-8.33,4.04-3.22,7.54-9.46,9.86-16.9,9.87-7.48,0-13.63-2.5-16.78-10.03-1.24-2.96-3.82-4.21-6.97-4.03-3.44,.2-5.88,1.93-7.01,5.25-1.34,3.95-.45,7.7,1.5,11.16,6.5,11.52,17.13,15.64,29.3,16.31Z"/>
      <path class="cls-5" d="M141.63,58.01c9.47-12.64,21.46-22.69,34.69-30.87,4.76-2.94,11.8-2.41,17.85-2.98,15.73-1.5,31.48-.76,46.89,2.28,6.28,1.24,10.64,7.42,15.56,11.68,18.88,16.36,30.73,37.34,38.99,60.59,2.83,6.26,1.83,3.26-8.9,1.49-4.02-.56-8.07-.75-12.11-1.33-18.69-2.7-35.76-9.88-52.52-17.97-12.08-5.83-24.39-11.23-37.22-14.91-12.94-3.71-26.34-5.84-39.9-6.33-1.35-.05-2.84,.15-3.33-1.65Z"/>
      <path class="cls-1" d="M296.88,247.15c21.29,1,36.01-12.22,51.1-24.16,6.79-5.37,13.93-10.74,18.47-18.51,9.19,4.05,18.29,8.35,28.3,10.13,2.37,.42,1.82,2.39,1.77,3.9-.67,22.04-6.29,42.89-14.87,63.1-9.45,22.25-23.2,41.5-40.17,58.55-2.6,2.61-5.29,5.58-9.13,1.38-.95-1.03-2.55-1.47-3.86-2.17-9.73-5.18-9.48-5.02-3.59-14.5,9.72-15.67,15.19-32.53,8.7-50.73-5.65-15.83-17.28-25.18-34.56-26.52-.73-.06-1.44-.31-2.15-.47Z"/>
      <path class="cls-1" d="M209.25,335.53c17.82,.49,34.5,1.17,50.92,4.48,6.68,1.35,13.28,4.97,18.03,8.76,1.84,.86,.42,2.4-.35,3.44-9.34,12.44-18.78,24.82-31.79,33.78-7.82,5.39-16.88,6.96-26.06,8.25-33.91,4.77-57.11-11.28-75.48-37.8-4.1-5.92-3.05-7.4,2.71-10.81,14.31-8.49,30.16-7.6,45.62-9.28,5.81-.63,11.69-.6,16.41-.82Z"/>
      <path class="cls-1" d="M58.87,208.97c6.06,6.12,12.02,12.3,18.69,17.86,9.08,7.56,18.99,13.54,29.52,18.71,1.26,.62,5.78-.15,2.65,3.83-31.24,14.01-32.24,48.16-15.75,74.45,6.47,10.31,6.49,9.92-3.7,16.28-5.24,3.27-8.4,3.45-13.26-1.42-28.42-28.55-45.75-62.54-52.22-102.19-.17-1.04-.44-1.99,.67-2.62,11.78-6.65,22.21-15.08,32.05-24.29,.34-.32,.9-.4,1.35-.59Z"/>
      <path class="cls-2" d="M141.63,58.01c.49,1.8,1.98,1.61,3.33,1.65,13.56,.48,26.96,2.62,39.9,6.33,12.83,3.68,25.14,9.08,37.22,14.91,16.77,8.09,33.83,15.27,52.52,17.97,4.04,.58,8.09,.77,12.11,1.33,4.73,.77,6.75,.88,10.12,1.4,1.51,3.82,2.92,7.68,4.56,11.44,1.21,2.77,.41,3.31-2.42,3.2-26.27-.98-52.34-4.17-78.48-6.69-30.49-2.94-60.77-7.82-91.38-9.49-1.23-.07-2.44-.47-3.67-.6q-8.91-.94-4.61-9.26c5.92-11.39,12.13-22.59,20.8-32.21Z"/>
      <path class="cls-1" d="M156.07,261.97c6.32,1.04,12.68,1.93,18.97,3.15,22.98,4.46,46.06,3.43,69.1,1.03,6.92-.72,13.66-3.25,20.48-4.94-5.21,7.84-10.79,15.42-13.34,24.76-2.12,7.77-3.53,15.54-2.38,23.58,.53,3.69-.22,4.69-4.41,4.31-23.73-2.17-47.49-2.49-71.22,.22-1.44,.16-2.79,.44-2.54-1.88,2.03-18.51-3.04-34.95-14.53-49.51-.13-.17-.09-.48-.13-.72Z"/>
      <path class="cls-2" d="M45.26,187.77c-2.16-1.22-2.87-3.04-2.98-5.54-.43-9.52-1.5-19.06,.09-28.55,1.52-9.09,3.51-18.08,7.36-26.54,9.9-2.51,19.96-3.77,30.63-3.95-8.59,23.48-16.21,47.06-35.1,64.57Z"/>
      <path class="cls-5" d="M300.31,47.59c.48,.21,.97,.42,1.44,.62,.02,1.15,.86,.8,1.51,.81,.31,.12,.61,.25,.91,.37,1,1.5,2.16,2.75,4.21,2.44,16.5,10.17,30.8,22.84,43.15,37.75-8.28,8.09-18.83,9.82-29.71,10.6-6.83-17.89-13.96-35.64-24.98-51.49,.73-1.69,2.25-.93,3.46-1.11Z"/>
      <path class="cls-2" d="M349.41,138.98c6.67-.61,13.08,1.64,19.86,1.45,6.22-.17,6.66,7,7.64,11.48,2.22,10.08,2.46,20.42,.96,30.71-17.7-9.96-31.4-23.62-40.16-43.65h11.7Z"/>
      <path class="cls-2" d="M106.88,289.61c-.61-8.1,2.1-14.61,9.75-18.03,7.53-3.36,14.3-1.3,20.23,4.16,9.72,8.94,14.39,28.85,8.87,38.02-9.89-3.97-18.6-9.8-23.63-19.28-3.89-7.33-8.75-7.65-15.22-4.87Z"/>
      <path class="cls-2" d="M273.86,313.51c-4.91-12.68,.71-32.16,11.57-40.12,9.27-6.79,21.91-2.93,26.36,8.05-1.2,.79-2.93,1.32-3.49,2.43-1.75,3.52-6.93,1.75-7.97,4.52-4.81,12.78-14.04,20.55-26.47,25.12Z"/>
      <path class="cls-2" d="M113.36,56.71c-8.59,12.37-15.39,25.71-21.46,39.45-.67,1.51-1.44,2.2-2.99,2.19-9.59-.05-19.16,.44-29.7,2.06,12.92-17.03,27.07-31.29,44.14-42.55,3.48,.85,6.47-2.5,10.01-1.14Z"/>
      <path class="cls-1" d="M273.86,313.51c12.43-4.57,21.66-12.34,26.47-25.12,1.04-2.76,6.22-.99,7.97-4.52,.55-1.11,2.29-1.64,3.49-2.43,3.74,11.85-1.28,21.84-6.83,31.68-1.03,1.83-2.37,3.49-3.65,5.17-3.33,4.35-6.45,9.37-13.1,7.9-7.01-1.55-11.9-5.82-14.36-12.69Z"/>
      <path class="cls-1" d="M106.88,289.61c6.48-2.78,11.34-2.46,15.22,4.87,5.03,9.48,13.74,15.31,23.63,19.28-2.04,7.21-7.7,10.32-14.22,12.28-5.59,1.68-8.84-1.8-11.76-5.77-6.76-9.18-12.86-18.64-12.87-30.65Z"/>
      <path class="cls-2" d="M321.82,100.19c10.89-.78,21.43-2.51,29.71-10.6,6.29,6.45,10.9,14.11,15.93,21.99-12.56,2.81-24.88,3.81-37.27,4.32-1.77,.07-2.4-.82-2.95-2.2-1.78-4.51-3.61-9.01-5.43-13.51Z"/>
      <path class="cls-1" d="M315.61,361.5c-8.79,6.31-17.43,11.36-27.93,15.79,6.21-6.93,11.03-13.4,15.33-20.23,1.22-1.94,2.64-.7,3.84-.13,2.76,1.31,5.42,2.82,8.75,4.57Z"/>
      <path class="cls-1" d="M104.5,361.01c3.21-1.49,5.98-2.79,8.77-4.06,1.19-.54,2.15-.2,2.94,.83,4.6,6.01,9.21,12.02,14.07,18.35-9.24-4.07-17.94-8.32-25.77-15.11Z"/>
      <path class="cls-5" d="M113.36,56.71c-3.54-1.36-6.53,2-10.01,1.14,5.58-3.67,11.15-7.34,16.73-11.01l-.05,.02c-2.22,3.28-4.45,6.56-6.67,9.85Z"/>
      <path class="cls-5" d="M300.31,47.59c-1.21,.18-2.73-.58-3.46,1.11-1.04-1.33-2.09-2.66-4.23-5.39,3.58,2,5.64,3.14,7.69,4.28Z"/>
      <path class="cls-5" d="M308.39,51.84c-2.06,.31-3.21-.94-4.21-2.44,1.41,.82,2.81,1.63,4.21,2.44Z"/>
      <path class="cls-5" d="M303.26,49.03c-.64-.02-1.48,.34-1.51-.81,.5,.27,1,.54,1.51,.81Z"/>
      <path class="cls-5" d="M120.08,46.84c.11,.04,.22,.11,.33,.1,.06,0,.11-.14,.17-.22-.18,.05-.36,.1-.55,.14,0,0,.05-.02,.05-.02Z"/>
      <path class="cls-3" d="M126.14,217.55c-14.69-.23-25.02-15.64-24.32-26.81,.99-15.65,12.74-27.23,27.74-26.56,15.09,.67,25.75,13.05,25.05,29.11-.6,13.98-13.4,24.89-28.48,24.27Zm2.95-49.51c-5.02,.38-8.52,3.51-8.86,9.52-.34,5.91,4.27,10.71,9.95,10.83,5.73,.12,10.17-4.03,10.25-9.57,.08-6.22-4.26-10.73-11.34-10.78Z"/>
      <path class="cls-3" d="M291.51,164.24c14.19-.54,26.46,11.12,27.11,25.77,.66,14.83-10.49,26.82-25.59,27.53-14.27,.67-26.8-11.41-27.23-26.26-.43-14.58,10.87-26.46,25.71-27.03Zm11.59,14.31c.1-6.05-4.37-10.63-10.53-10.52-6.05,.11-9.5,3.48-9.97,9.39-.48,6.08,4.23,10.92,10.15,10.98,5.99,.06,10.26-4,10.35-9.85Z"/>
      <path class="cls-3" d="M210.04,231.09c-12.16-.67-22.79-4.79-29.3-16.31-1.95-3.46-2.85-7.21-1.5-11.16,1.13-3.32,3.57-5.05,7.01-5.25,3.14-.18,5.73,1.06,6.97,4.03,3.15,7.53,9.3,10.03,16.78,10.03,7.44,0,13.68-2.32,16.9-9.87,1.53-3.59,4.65-4.89,8.33-4.04,4.19,.97,6.13,3.98,6.28,8.21,.29,8.35-7.93,18.1-18.64,22.13-4.02,1.51-8.21,2.02-12.83,2.23Z"/>
      <path class="cls-4" d="M129.09,168.04c7.08,.05,11.42,4.56,11.34,10.78-.07,5.55-4.51,9.69-10.25,9.57-5.68-.12-10.29-4.92-9.95-10.83,.34-6.01,3.84-9.14,8.86-9.52Z"/>
      <path class="cls-4" d="M303.1,178.55c-.09,5.84-4.36,9.91-10.35,9.85-5.93-.06-10.64-4.9-10.15-10.98,.47-5.91,3.92-9.28,9.97-9.39,6.16-.11,10.62,4.47,10.53,10.52Z"/>
      <path class="cls-3" d="M395.71,189.18c3.43,2.15,7.38,1.95,11.14,2.21,9.12,.63,13.53,4.81,13.56,13.88,.22,59.13-20.76,109.74-62.21,151.66-43.92,44.42-98.28,63.04-159.76,60.59C97.42,413.49,12.3,333.77,.49,233.48c-1.51-12.8,0-15.35,11.48-21.08,3.81-1.9,8.28-2.89,10.93-6.73,8.93-4.13,15.47-11.24,22.36-17.91,18.89-17.52,26.5-41.09,35.1-64.57-10.67,.18-20.73,1.43-30.63,3.95-5.33-.75-8.28,1.82-10.48,6.54-8.01,17.19-12.51,35.36-15.83,53.9-3.72,5.75-8.63,9.39-15.63,6.61-7.15-2.83-8.18-8.76-7.03-15.81C15.04,91.06,82.6,21.87,169.34,4.04c85.28-17.53,175.41,23.39,219.88,96.17,10.97,17.95,19.68,36.87,24.77,57.37,1.45,5.83,.45,10.84-4.57,14.23-5.16,3.48-10.39,2.69-15.13-1.29-2.39-3.12-3.6-6.74-4.5-10.51-1.88-7.9-4.54-15.53-8-22.87-.53-1.13-.76-2.99-2.68-2.48-9.74,2.58-19.81,2.83-29.71,4.32h-11.7c8.75,20.03,22.45,33.69,40.16,43.65,5.52,3.35,11.31,5.93,17.83,6.55ZM303.26,49.03c-.5-.27-1-.54-1.5-.81-.48-.21-.97-.42-1.45-.63-2.06-1.14-4.11-2.29-7.69-4.28,2.14,2.73,3.19,4.06,4.23,5.39,11.02,15.86,18.15,33.61,24.98,51.5,1.81,4.5,3.64,9,5.43,13.51,.54,1.38,1.18,2.27,2.95,2.2,12.39-.51,24.72-1.51,37.27-4.32-5.03-7.88-9.64-15.53-15.93-21.99-12.35-14.91-26.65-27.58-43.15-37.75-1.4-.81-2.81-1.63-4.21-2.44-.31-.12-.61-.25-.92-.37Zm-183.18-2.18c-5.58,3.67-11.15,7.34-16.73,11.01-17.07,11.27-31.22,25.53-44.14,42.56,10.54-1.61,20.1-2.1,29.7-2.06,1.55,0,2.33-.68,2.99-2.19,6.07-13.73,12.87-27.08,21.46-39.45,2.22-3.28,4.45-6.56,6.67-9.85,.18-.05,.36-.1,.55-.14-.06,.08-.11,.22-.17,.22-.1,.01-.22-.06-.33-.1Zm153.77,266.67c2.45,6.87,7.34,11.14,14.36,12.69,6.65,1.47,9.77-3.55,13.1-7.9,1.28-1.68,2.62-3.34,3.65-5.17,5.55-9.84,10.56-19.83,6.83-31.68-4.45-10.99-17.09-14.85-26.36-8.05-10.86,7.96-16.47,27.44-11.57,40.12Zm-166.98-23.91c0,12.02,6.11,21.47,12.87,30.65,2.92,3.97,6.17,7.45,11.76,5.77,6.53-1.96,12.18-5.06,14.22-12.28,5.52-9.16,.85-29.08-8.87-38.02-5.93-5.45-12.7-7.52-20.23-4.16-7.65,3.42-10.36,9.93-9.75,18.03ZM296.83,101.61c-.41-.96-.81-1.93-1.22-2.89-8.25-23.25-20.11-44.23-38.99-60.59-4.92-4.26-9.28-10.44-15.56-11.68-15.41-3.04-31.17-3.79-46.89-2.28-6.05,.58-13.1,.04-17.85,2.98-13.23,8.18-25.22,18.23-34.69,30.87-8.67,9.62-14.87,20.83-20.8,32.21q-4.33,8.32,4.61,9.26c1.23,.13,2.44,.53,3.67,.6,30.62,1.67,60.9,6.54,91.38,9.49,26.14,2.52,52.21,5.72,78.48,6.69,2.83,.11,3.63-.43,2.42-3.2-1.64-3.76-3.05-7.62-4.56-11.44ZM109.73,249.36c17.98-5.11,33.39-.77,46.35,12.6,.04,.24,0,.55,.13,.72,11.49,14.56,16.55,31,14.53,49.51-.25,2.32,1.1,2.04,2.54,1.88,23.73-2.71,47.49-2.39,71.22-.22,4.19,.38,4.94-.62,4.41-4.31-1.15-8.04,.26-15.81,2.38-23.58,2.54-9.34,8.12-16.92,13.34-24.76,8.94-8.85,19.32-14.38,32.26-14.07,.72,.16,1.43,.41,2.15,.47,17.28,1.34,28.91,10.68,34.56,26.52,6.49,18.2,1.02,35.06-8.7,50.73-5.88,9.48-6.14,9.32,3.59,14.5,1.31,.7,2.91,1.13,3.86,2.17,3.85,4.2,6.53,1.23,9.13-1.38,16.97-17.05,30.72-36.3,40.17-58.55,8.58-20.2,14.2-41.06,14.87-63.1,.05-1.5,.59-3.47-1.77-3.9-10.01-1.78-19.11-6.08-28.3-10.13-.13-.21-.22-.5-.41-.6-24.95-13.89-42.23-34.48-52.96-60.73-.99-2.43-2.57-2.53-4.67-2.55-27.6-.3-55-3.33-82.39-6.32-37.31-4.07-74.54-8.79-111.98-11.55-5.74-.42-8.44,1-10.6,6.54-7.18,18.41-13.08,37.41-24.01,54.21-6,9.23-13.68,17.02-20.55,25.5-.46,.19-1.02,.27-1.35,.59-9.84,9.21-20.27,17.63-32.05,24.29-1.11,.63-.84,1.58-.67,2.62,6.47,39.66,23.81,73.65,52.22,102.19,4.86,4.88,8.01,4.7,13.26,1.42,10.2-6.36,10.17-5.97,3.7-16.28-16.5-26.28-15.49-60.44,15.75-74.45Zm99.52,86.17c-4.73,.22-10.61,.19-16.41,.82-15.46,1.68-31.31,.79-45.62,9.28-5.76,3.42-6.81,4.89-2.71,10.81,18.38,26.53,41.58,42.58,75.48,37.8,9.18-1.29,18.24-2.86,26.06-8.25,13.01-8.97,22.45-21.34,31.79-33.78,.77-1.03,2.19-2.58,.35-3.44-6.07-2.82-11.35-7.42-18.03-8.76-16.42-3.31-33.1-3.99-50.92-4.48Zm106.37,25.97c-3.33-1.76-5.99-3.26-8.75-4.57-1.2-.57-2.62-1.81-3.84,.13-4.31,6.84-9.13,13.3-15.33,20.23,10.49-4.43,19.13-9.49,27.93-15.79Zm-211.11-.5c7.83,6.79,16.53,11.04,25.77,15.11-4.85-6.33-9.47-12.34-14.07-18.35-.78-1.03-1.75-1.37-2.94-.83-2.78,1.27-5.56,2.57-8.77,4.06Z"/>
    </g>
  </g>
</svg>