<?xml version="1.0" encoding="UTF-8"?>
<svg id="Layer_2" data-name="Layer 2" xmlns="http://www.w3.org/2000/svg" viewBox="0 0 706.25 108.48">
  <defs>
    <style>
      .cls-1 {
        fill: #fff;
      }
    </style>
  </defs>
  <g id="Layer_1-2" data-name="Layer 1">
    <g>
      <path class="cls-1" d="M88.51,42.01c0,11.85-3.11,21.45-9.33,28.79-6.66,7.79-15.84,11.68-27.54,11.68-1.96,0-4.91-.11-8.85-.33-3.94-.22-6.89-.33-8.85-.33-2.11,0-3.16,.91-3.16,2.72,0,2.25,.22,5.61,.66,10.06,.44,4.46,.66,7.79,.66,9.99,0,1.13-.51,1.69-1.54,1.69-2.99,0-7.47-.09-13.44-.26-5.97-.17-10.45-.26-13.44-.26-1.42,0-2.13-.71-2.13-2.13,0-5.44,.08-13.6,.26-24.49,.17-10.89,.26-19.06,.26-24.49C2.06,39.27,1.4,23.11,.08,6.17L0,5.14c-.1-.93,.64-1.49,2.2-1.69,3.82-.49,12.24-.73,25.27-.73,7.69,0,15.06,.1,22.11,.29,11.6,.34,20.96,3.99,28.06,10.94,7.25,7.15,10.87,16.5,10.87,28.06Zm-29.31,1.17c0-11.41-5.56-17.11-16.67-17.11-7.83,0-11.95,.44-12.34,1.32-.34,.64-.51,6.29-.51,16.97,0,1.52,.06,3.76,.18,6.72,.12,2.96,.18,5.2,.18,6.72,0,.98,4.41,1.47,13.22,1.47,10.62,0,15.94-5.36,15.94-16.08Z"/>
      <path class="cls-1" d="M164.07,107.01c-4.21,0-9.69-.1-16.45-.29-8.81-.2-14.3-.32-16.45-.37l-21.96-.29c-2.2,.05-5.36-.05-9.47-.29-1.42-.24-2.13-1-2.13-2.28,0-5.34,.08-13.33,.26-23.98,.17-10.65,.26-18.64,.26-23.98,0-5.68-.17-14.19-.51-25.52-.34-11.33-.51-19.84-.51-25.52,0-1.08,.73-1.62,2.2-1.62s3.66,.07,6.57,.22c2.91,.15,5.08,.22,6.5,.22,1.62,0,4.01-.08,7.2-.26,3.18-.17,5.58-.26,7.2-.26,.73,0,1.08,.47,1.03,1.4l-.07,.96c-.59,9.21-1.25,23.04-1.98,41.5l-.07,19.39c0,6.27,.02,10.85,.07,13.73,.05,.59,.1,1.18,.15,1.76,.05,.59,.42,.95,1.1,1.1h1.91c4.41,0,11-.23,19.79-.7,8.79-.46,15.39-.7,19.79-.7,1.32,0,1.98,.56,1.98,1.69,0,8.37-.61,15.6-1.84,21.67-.25,1.27-.76,2.03-1.54,2.28-.25,.1-1.25,.15-3.01,.15Z"/>
      <path class="cls-1" d="M180.11,40.64c.18,5.98,.27,10.5,.27,13.57s-.09,6.83-.28,11.48c0,0,8.05-.94,16.05-.94s14.74,.4,15.95,.4h7.79c9.94,0,16.31,.15,19.1,.44l6.61,.73c1.42,0,2.13-.49,2.13-1.47,0-3.92,.19-7.83,.59-11.75,.77-7.41,1.2-11.2,1.3-11.39-.06-1.01-.63-1.54-1.74-1.54-.98,0-2.3,.1-3.97,.29-2.16,.2-3.5,.32-4.04,.37-6.32,.34-12.56,.51-18.73,.51-.93,0-2.11,.04-3.53,.11-1.42,.07-2.38,.11-2.86,.11"/>
      <path class="cls-1" d="M213.65,26.07c10.38,0,22.08,.54,35.11,1.62,.73,.05,1.25,.07,1.54,.07,.98,0,1.47-.51,1.47-1.54,0-1.22-.26-4.69-.77-10.39-.51-5.7-.89-9.12-1.14-10.25-.39-1.91-1.86-2.86-4.41-2.86-3.57,0-8.96,.1-16.16,.29-7.2,.2-12.58,.29-16.16,.29s-9.07-.1-16.34-.29c-7.27-.19-12.72-.29-16.34-.29-1.32,0-1.94,.56-1.84,1.69l.07,1.03c.39,7.79,.66,13.64,.81,17.55,.04,1.12,.09,2.22,.13,3.29"/>
      <path class="cls-1" d="M252.43,80.28c-2.55,0-6.38,.23-11.49,.7-5.12,.47-8.97,.7-11.57,.7-7.25,0-10.82,0-10.72,0-1.91-.12-39.3-.54-39.3-.54-.53,9.89-.8,17.4-.8,22.5,0,1.42,.81,2.13,2.42,2.13,3.72,0,9.3,.02,16.75,.07,7.44,.05,13.05,.07,16.82,.07,17.28,0,27.71,.24,31.29,.73,1.03,.15,1.76,.22,2.2,.22,1.03,0,1.84-.47,2.42-1.4,.69-1.17,1.47-4.82,2.35-10.94,.83-5.63,1.25-9.5,1.25-11.6,0-1.76-.54-2.64-1.62-2.64Z"/>
      <path class="cls-1" d="M344.9,95.99c0,4.8-.22,7.64-.66,8.52-.54,1.08-2.2,1.62-4.99,1.62h-2.94c-1.47-.05-2.71-.07-3.71-.07s-2.5-.05-4.48-.15c-1.98-.1-3.46-.15-4.44-.15-.78,0-4.31-4.7-10.58-14.1-6.27-9.4-9.52-14.13-9.77-14.18-1.03,.83-4.55,5.78-10.58,14.84-5.78,8.67-9.16,13.15-10.14,13.44-.69,.2-2.52,.29-5.51,.29-10.04,0-15.06-.51-15.06-1.54s-.06-2.5-.18-4.41c-.12-1.91-.18-3.33-.18-4.26,0-6.07,.37-9.65,1.1-10.72,.05-.05,4.09-5.41,12.12-16.08,6.51-8.62,9.77-13.54,9.77-14.76s-3.26-6.07-9.77-14.54c-4.11-5.24-8.2-10.5-12.27-15.79-.44-.64-.71-1.69-.81-3.16-.05-1.03-.05-2.42,0-4.19,.15-2.1,.22-3.28,.22-3.53,0-.98-.09-2.5-.26-4.55-.17-2.06-.26-3.57-.26-4.55,0-.93,.86-1.4,2.57-1.4,1.13,0,2.79,.07,4.99,.22,2.2,.15,3.84,.22,4.92,.22,.98,0,2.42-.05,4.33-.15,1.91-.1,3.33-.15,4.26-.15,.78,0,4.34,4.76,10.69,14.29,6.34,9.52,9.66,14.29,9.95,14.29,.98-.59,4.58-5.58,10.8-14.98,5.92-9.06,9.33-13.59,10.21-13.59h17.48c1.71,0,2.57,.42,2.57,1.25V21.81c0,1.27-3.78,6.83-11.35,16.67-7.57,9.84-11.35,15.06-11.35,15.64,0,.83,3.33,5.66,9.99,14.47,7.83,10.33,11.92,15.74,12.27,16.23,.69,1.08,1.03,4.8,1.03,11.16Z"/>
      <path class="cls-1" d="M386.32,51.49c0,5.78,.15,14.47,.44,26.07,.29,11.6,.44,20.3,.44,26.07,0,.98-.22,1.59-.66,1.84-.1,.05-.73,.15-1.91,.29-3.18,.39-7.44,.59-12.78,.59-7.15,0-11.7-.2-13.66-.59-1.42-.29-2.13-1.05-2.13-2.28,0,.78,.22-3.53,.66-12.93,.88-19.83,1.32-32.85,1.32-39.07,0-5.24-.17-13.1-.51-23.58-.34-10.48-.51-18.34-.51-23.58,0-1.08,.56-1.62,1.69-1.62,1.52,0,3.81,.07,6.87,.22,3.06,.15,5.35,.22,6.87,.22s3.76-.07,6.72-.22c2.96-.15,5.2-.22,6.72-.22,1.42,0,2.13,.54,2.13,1.62,0,5.24-.28,13.1-.84,23.58-.56,10.48-.84,18.34-.84,23.58Z"/>
      <path class="cls-1" d="M487.09,89.16c0,.78-.51,1.81-1.54,3.08-9.01,10.72-20.98,16.08-35.92,16.08s-27.67-5.21-37.16-15.64c-9.25-10.09-13.88-22.82-13.88-38.19s4.53-27.52,13.59-37.9C421.62,5.73,433.64,.29,448.24,.29c15.86,0,28.3,4.87,37.31,14.62,.98,1.08,1.47,2.03,1.47,2.86,0,.93-1.7,4.38-5.11,10.36-3.4,5.97-5.54,9.33-6.43,10.06-.39,.39-.88,.59-1.47,.59-.25,0-1.47-.98-3.67-2.94-2.64-2.35-5.24-4.19-7.79-5.51-3.87-1.96-7.88-2.94-12.05-2.94-7.2,0-12.95,2.69-17.26,8.08-3.97,4.99-5.95,11.16-5.95,18.51s1.98,13.69,5.95,18.73c4.31,5.48,10.06,8.23,17.26,8.23,4.26,0,8.3-.93,12.12-2.79,2.5-1.22,5.04-2.94,7.64-5.14,2.15-1.86,3.35-2.79,3.6-2.79,.49,0,.98,.27,1.47,.81,.78,.88,2.91,3.94,6.39,9.18,3.57,5.44,5.36,8.42,5.36,8.96Z"/>
      <path class="cls-1" d="M597.04,54.35c0,15.28-4.87,28.08-14.62,38.41-9.94,10.48-22.52,15.72-37.75,15.72s-27.69-5.29-37.68-15.86c-9.79-10.33-14.69-23.09-14.69-38.27s4.9-28.03,14.69-38.41c9.99-10.62,22.55-15.94,37.68-15.94s27.57,5.31,37.6,15.94c9.84,10.48,14.76,23.28,14.76,38.41Zm-27.84-.15c0-7.34-2.23-13.59-6.68-18.73-4.65-5.39-10.6-8.08-17.85-8.08s-12.76,2.79-17.55,8.37c-4.65,5.39-6.98,11.58-6.98,18.58,0,7.49,2.18,13.73,6.54,18.73,4.6,5.24,10.6,7.86,18,7.86,6.9,0,12.78-2.77,17.63-8.3,4.6-5.29,6.9-11.43,6.9-18.44Z"/>
      <path class="cls-1" d="M706.25,4.99c0,5.58-.23,13.97-.7,25.16-.47,11.19-.7,19.6-.7,25.23v48.4c0,1.32-.71,1.98-2.13,1.98-1.17,0-2.95,.05-5.32,.15-2.38,.1-4.15,.15-5.33,.15-1.27,0-3.18-.1-5.73-.29-2.55-.2-4.46-.29-5.73-.29-.88,0-1.93-.81-3.16-2.42-3.53-4.75-11.46-15.28-23.8-31.58-3.38-4.55-8.52-11.26-15.42-20.12-.2-.29-.56-.59-1.1-.88-.39,.34-.59,.88-.59,1.62,0,5.68,.16,14.2,.48,25.56,.32,11.36,.48,19.88,.48,25.56,0,1.71-.66,2.57-1.98,2.57h-25.41c-1.42,0-2.13-.76-2.13-2.28,0-5.29,.26-13.27,.77-23.94,.51-10.67,.77-18.68,.77-24.02,0-5.63-.23-14.05-.7-25.27-.47-11.21-.7-19.61-.7-25.19,0-1.08,.95-1.62,2.86-1.62,2.84,0,6.34-.2,10.5-.59,.98-.1,2.91-.42,5.8-.96,2.45-.44,4.38-.66,5.8-.66,.59,0,1.49,.83,2.72,2.5l27.4,37.53c2.45,3.38,6.14,8.32,11.09,14.84,1.22,1.52,2.28,2.28,3.16,2.28,.64,0,.96-1.91,.96-5.73,0-5.14-.28-12.88-.84-23.21-.56-10.33-.84-18.09-.84-23.28,0-1.81,.51-2.72,1.54-2.72,2.94,0,7.37-.12,13.29-.37,5.92-.24,10.36-.37,13.29-.37,.93,0,1.4,.76,1.4,2.28Z"/>
    </g>
  </g>
</svg>