<svg transform="scale(1)" id="_0510_pie_chart_1" xmlns="http://www.w3.org/2000/svg" xmlns:xlink="http://www.w3.org/1999/xlink" viewBox="0 0 500 500" class="show_show__wrapper__graphic__5Waiy "><title>React</title><defs><style>.cls-1{opacity:.29;}.cls-1,.cls-2,.cls-3,.cls-4,.cls-5,.cls-6,.cls-7,.cls-8,.cls-9,.cls-10{stroke-width:0px;}.cls-1,.cls-3{isolation:isolate;}.cls-1,.cls-3,.cls-10{fill:#68e1fd;}.cls-2{fill:url(#linear-gradient);}.cls-3{opacity:.18;}.cls-4{fill:url(#linear-gradient-4);}.cls-5{fill:url(#linear-gradient-2);}.cls-6{fill:url(#linear-gradient-3);}.cls-7{fill:url(#linear-gradient-5);}.cls-8{fill:url(#linear-gradient-6);}.cls-9{fill:#fff;}</style><linearGradient id="linear-gradient" x1="283.6" y1="1884.96" x2="445.44" y2="2550.13" gradientTransform="translate(-73.61 2218.55) scale(1 -1)" gradientUnits="userSpaceOnUse"><stop offset="0" stop-color="#231f20"></stop><stop offset=".08" stop-color="#231f20" stop-opacity=".69"></stop><stop offset=".21" stop-color="#231f20" stop-opacity=".32"></stop><stop offset="1" stop-color="#231f20" stop-opacity="0"></stop></linearGradient><linearGradient id="linear-gradient-2" x1="386.63" y1="2010.61" x2="257.59" y2="2186.41" gradientTransform="translate(-73.61 2218.55) scale(1 -1)" gradientUnits="userSpaceOnUse"><stop offset="0" stop-color="#fff"></stop><stop offset="1" stop-color="#fff" stop-opacity="0"></stop></linearGradient><linearGradient id="linear-gradient-3" x1="255.54" y1="1974.99" x2="340.22" y2="2322.98" xlink:href="#linear-gradient"></linearGradient><linearGradient id="linear-gradient-4" x1="222.75" y1="2210.24" x2="344.53" y2="2067.82" gradientTransform="translate(-31 2323.65) scale(1 -1)" xlink:href="#linear-gradient"></linearGradient><linearGradient id="linear-gradient-5" x1="261.82" y1="2197.96" x2="289.61" y2="2112.18" gradientTransform="translate(-31 2323.65) scale(1 -1)" xlink:href="#linear-gradient"></linearGradient><linearGradient id="linear-gradient-6" x1="185.84" y1="2050.64" x2="512.23" y2="2042.55" xlink:href="#linear-gradient"></linearGradient></defs><g id="background"><path class="cls-3" d="M261.19,63.39c-22,11.58-43.53,25.34-66.1,35.27-33.16,14.61-69.78,21.29-101.13,39.48-89.69,52.01-134.51,232.76-10.4,274.32,60.37,20.21,127.82-10.73,189.89-6.55,28.5,1.92,56.2,5.03,84.86,8.95,28.42,3.88,59.71,5.95,85.49-9.02,27.72-16.09,41.06-49.52,43.69-81.46,2.63-31.94-3.47-63.9-4.8-95.92-1.05-24.74.76-49.86-4.66-74.03-10.5-46.66-47.87-84.63-92.17-102.68-16.55-6.75-34.29-11.05-52.16-10.72-25.86.46-49.44,10.24-72.51,22.39Z"></path></g><g id="pie_chart"><path class="cls-10" d="M268.62,183.16c-53.87,13.13-101.55,7.4-106.47-12.81-.34-1.39-4.57-18.45-4.5-19.92,0-.04,2.31,0,2.33-.07,1.16-19.55,40.77-28.13,90.83-40.35,43.96-10.71,81.67-23.45,97.52-11.44,3.58,2.71,8.04,20.53,8.95,24.26,4.93,20.22-34.76,47.2-88.65,60.33Z"></path><path class="cls-2" d="M268.62,183.16c-53.87,13.13-101.55,7.4-106.47-12.81-.34-1.39-4.93-20.62-4.93-20.62,1.16-19.56,43.53-27.5,93.58-39.72,43.96-10.71,85.17-18.12,101.03-6.11,0,0,4.53,15.21,5.44,18.95,4.93,20.2-34.76,47.18-88.65,60.31Z"></path><path class="cls-10" d="M263.56,165.9c-53.87,13.16-100.54,7.53-105.47-12.68-.35-1.39-1.01-3.93-1-3.97,1.17-19.56,38.6-44.27,88.65-56.49,43.96-10.7,83.78-8.85,99.63,3.16,3.58,2.7,5.94,5.93,6.84,9.66,4.93,20.19-34.76,47.21-88.65,60.33Z"></path><path class="cls-5" d="M345.37,95.92l-87.99,26.71-99.39,30.19c-.25-1.41-.88-2.14-.89-3.58,0-.04,0,.04,0,0,.89-14.88,22.58-32.97,55.13-45.87,10.92-4.31,22.12-7.86,33.52-10.62,43.96-10.7,83.78-8.85,99.63,3.16Z"></path><path class="cls-6" d="M216.63,172.79l40.75-50.16-99.4,30.19s.56,21.52,58.65,19.97Z"></path><path class="cls-10" d="M257.38,113.8l-100.29,30.47c-.24-1.42-.37-2.85-.38-4.28-.02-.04-.02-.08,0-.11.89-14.88,22.96-32.42,55.51-45.33l45.16,19.25Z"></path><polygon class="cls-10" points="257.39 122.64 257.38 113.8 157.09 144.26 257.39 122.64"></polygon><polygon class="cls-4" points="257.39 122.64 257.38 113.8 157.09 144.26 157.09 149.24 257.39 122.64"></polygon><polygon class="cls-7" points="216.63 172.79 216.63 163.72 257.38 116.79 257.39 122.64 216.63 172.79"></polygon><path class="cls-10" d="M257.38,116.79l-100.29,32.46s16.32,18.42,59.54,14.48l40.75-46.94Z"></path><path class="cls-10" d="M216.63,163.72v26.49s-44.84,1.11-53.62-17.37l-5.93-23.63s19.5,23.2,59.54,14.51Z"></path><path class="cls-8" d="M216.63,163.72v26.49s-44.84,1.11-53.62-17.37l-5.93-23.63s19.5,23.2,59.54,14.51Z"></path><polygon class="cls-10" points="201.38 119.67 175.04 79.86 118.87 76.64 118.95 75.2 175.84 78.47 176.04 78.76 202.58 118.87 201.38 119.67"></polygon><path class="cls-10" d="M114.46,81.23c-3.45,0-6.25-2.8-6.25-6.25s2.8-6.25,6.25-6.25,6.25,2.8,6.25,6.25h0c0,3.45-2.8,6.25-6.25,6.25ZM114.46,70.17c-2.66,0-4.81,2.15-4.81,4.81s2.15,4.81,4.81,4.81,4.81-2.15,4.81-4.81c0-2.66-2.15-4.82-4.81-4.82h0Z"></path><polygon class="cls-10" points="262.89 94.76 261.69 93.96 288.43 53.55 288.79 53.53 345.33 50.3 345.41 51.73 289.23 54.95 262.89 94.76"></polygon><path class="cls-10" d="M349.82,56.32c-3.45,0-6.25-2.8-6.25-6.25s2.8-6.25,6.25-6.25c3.45,0,6.25,2.8,6.25,6.25h0c0,3.45-2.8,6.25-6.25,6.25ZM349.82,45.26c-2.66,0-4.81,2.15-4.81,4.81,0,2.66,2.15,4.81,4.81,4.81,2.66,0,4.81-2.15,4.81-4.81s-2.15-4.81-4.81-4.82h0Z"></path><path class="cls-10" d="M419.1,179.04c-3.45,0-6.25-2.8-6.25-6.25s2.8-6.25,6.25-6.25,6.25,2.8,6.25,6.25h0c0,3.45-2.8,6.25-6.25,6.25ZM419.1,167.98c-2.66,0-4.81,2.15-4.81,4.81,0,2.66,2.15,4.81,4.81,4.81s4.81-2.15,4.81-4.81c0-2.66-2.16-4.81-4.81-4.81Z"></path><polygon class="cls-10" points="413.57 173.51 358.24 173.51 358.07 173.39 303.43 138.03 304.22 136.82 358.67 172.07 413.57 172.07 413.57 173.51"></polygon><path class="cls-10" d="M87.02,188.43c-3.45,0-6.25-2.8-6.24-6.25,0-3.45,2.8-6.25,6.25-6.24,3.45,0,6.24,2.8,6.24,6.25,0,3.45-2.8,6.25-6.25,6.25ZM87.02,177.37c-2.66,0-4.81,2.15-4.81,4.81s2.15,4.81,4.81,4.81,4.81-2.15,4.81-4.81c0-2.66-2.15-4.81-4.81-4.82h0Z"></path><polygon class="cls-10" points="147.88 182.9 92.55 182.9 92.55 181.46 147.45 181.46 201.91 146.21 202.69 147.42 147.88 182.9"></polygon></g><g id="data"><rect class="cls-1" x="55.12" y="217.14" width="416.33" height="152.11" rx="20.34" ry="20.34"></rect><rect class="cls-9" x="46.48" y="209.04" width="416.33" height="152.11" rx="20.34" ry="20.34"></rect><path class="cls-10" d="M146.17,264.07c0,.26.03.53.04.78v-.78h-.04Z"></path><path class="cls-10" d="M146.22,263.28c0,.26-.04.53-.04.78h.06c0-.26-.01-.52-.02-.78Z"></path><path class="cls-10" d="M209.96,264.07c0,.26.03.53.04.78v-.78h-.04Z"></path><path class="cls-10" d="M210,263.28c0,.26-.04.53-.04.78h.06c0-.26-.02-.52-.02-.78Z"></path><path class="cls-10" d="M127.62,264.07h.06c0-.26-.03-.53-.04-.78,0,.26-.02.52-.02.78Z"></path><path class="cls-10" d="M127.64,264.84c0-.26.04-.53.04-.78h-.06c0,.26.02.52.02.78Z"></path><path class="cls-10" d="M273.82,263.28c0,.26-.04.53-.04.78h.04v-.78Z"></path><path class="cls-10" d="M191.41,264.07h.06c0-.27-.03-.53-.04-.78,0,.26-.02.52-.02.78Z"></path><path class="cls-10" d="M273.75,264.07c0,.26.03.53.04.78v-.78h-.04Z"></path><path class="cls-10" d="M191.43,264.84c0-.26.04-.53.04-.78h-.06c0,.26.02.52.02.78Z"></path><path class="cls-10" d="M255.22,264.84c0-.26.04-.53.04-.78h-.06c0,.26.02.52.02.78Z"></path><path class="cls-10" d="M337.41,264.07c0,.78.04,1.55.12,2.32.04-.77.07-1.54.07-2.32h-.18Z"></path><path class="cls-10" d="M337.51,261.74c-.08.77-.12,1.55-.12,2.33h.18c.02-.78,0-1.56-.07-2.33Z"></path><path class="cls-10" d="M255.2,264.07h.06c0-.26-.03-.53-.04-.78,0,.26-.02.52-.02.78Z"></path><path class="cls-10" d="M401.26,264.07v-.78c0,.26-.04.53-.04.78h.04Z"></path><path class="cls-10" d="M318.93,266.39c.08-.77.12-1.55.12-2.32h-.19c0,.78.03,1.55.07,2.32Z"></path><path class="cls-10" d="M318.86,264.07h.19c0-.78-.04-1.55-.12-2.33-.04.77-.07,1.54-.07,2.33Z"></path><path class="cls-10" d="M401.2,264.07c0,.26.03.53.04.78v-.78h-.04Z"></path><path class="cls-10" d="M382.65,264.07h.06c0-.26-.03-.53-.04-.78,0,.26-.02.52-.02.78Z"></path><path class="cls-10" d="M382.67,264.84c0-.26.04-.53.04-.78h-.06c0,.26.02.52.02.78Z"></path><path class="cls-10" d="M127.64,263.28c-.44-12.49-10.92-22.27-23.41-21.83-12.49.44-22.27,10.92-21.83,23.41.44,12.49,10.92,22.27,23.41,21.83,11.88-.41,21.42-9.95,21.83-21.83v-1.58Z"></path><path class="cls-10" d="M191.43,263.28c-.6-12.49-11.21-22.12-23.7-21.52-11.64.56-20.95,9.87-21.52,21.52v1.56c.6,12.49,11.21,22.12,23.7,21.52,11.64-.56,20.95-9.87,21.52-21.52v-.78c0-.25,0-.52,0-.78Z"></path><path class="cls-10" d="M318.93,261.74c-1.38-12.42-12.57-21.38-24.99-20-11.1,1.23-19.65,10.38-20.12,21.54v1.56c.43,12.49,10.9,22.28,23.39,21.85,11.3-.39,20.59-9.06,21.74-20.31-.04-.77-.07-1.54-.07-2.32s0-1.56.04-2.33Z"></path><path class="cls-10" d="M255.22,263.28c-.57-12.49-11.16-22.15-23.65-21.58-11.69.54-21.04,9.89-21.58,21.58v1.56c.57,12.49,11.16,22.15,23.65,21.58,11.69-.54,21.04-9.89,21.58-21.58v-.78c0-.25,0-.52,0-.78Z"></path><path class="cls-10" d="M382.67,263.28c-.31-12.5-10.69-22.37-23.19-22.06-11.46.29-20.9,9.1-21.97,20.52.04.77.07,1.54.07,2.33s0,1.58-.07,2.32c1.26,12.44,12.36,21.5,24.79,20.25,11.28-1.14,19.98-10.45,20.35-21.79v-.78c0-.25.02-.52.02-.78Z"></path><path class="cls-10" d="M423.83,241.42c-12.2,0-22.19,9.68-22.61,21.87v1.56c.44,12.49,10.92,22.26,23.41,21.83,12.49-.44,22.26-10.92,21.83-23.41-.43-12.19-10.44-21.85-22.63-21.84Z"></path><path class="cls-9" d="M104.33,264.02h0v-17.9c-9.85.03-17.81,8.04-17.78,17.9.03,9.85,8.04,17.81,17.9,17.78,9.81-.03,17.75-7.97,17.78-17.78h-17.9Z"></path><path class="cls-9" d="M168.34,264.02h0v-17.9c-3.14.01-6.23.84-8.95,2.41-1.35.78-2.6,1.73-3.71,2.83-7.04,6.94-7.13,18.27-.19,25.31s18.27,7.13,25.31.19c1.18-1.16,2.19-2.48,3.01-3.92l-15.46-8.92Z"></path><path class="cls-9" d="M232.94,264.02h0v-17.9c-4.74.03-9.28,1.92-12.63,5.26-3.33,3.36-5.22,7.9-5.24,12.63,0,3.14.84,6.23,2.41,8.95,2.37,4.1,6.27,7.1,10.85,8.33,4.58,1.22,9.45.58,13.56-1.78l-8.94-15.49Z"></path><path class="cls-9" d="M296.45,264.02v-17.9c-3.14.01-6.23.84-8.95,2.41-1.34.78-2.58,1.73-3.68,2.83-6.98,7-6.96,18.33.04,25.31,3.34,3.33,7.87,5.21,12.59,5.22v-17.9.03Z"></path><path class="cls-9" d="M360.42,264.02v-17.9c-9.88.02-17.88,8.06-17.85,17.94.01,4.72,1.89,9.25,5.22,12.59l12.63-12.63Z"></path><path class="cls-9" d="M423.79,264.02v-17.9c-9.87.02-17.87,8.02-17.9,17.9h17.9Z"></path><path class="cls-10" d="M86.47,322.64h7.59v1.75c-.63.57-1.19,1.22-1.65,1.94-.55.88-.98,1.82-1.27,2.82-.27.94-.44,1.9-.49,2.88h-2.6c.15-1.32.48-2.61.97-3.84.54-1.2,1.24-2.31,2.08-3.32h-4.62v-2.22Z"></path><path class="cls-10" d="M96.2,322.64h6.17v2.07h-4.18l-.22,1.41c.27-.13.56-.23.86-.31.28-.07.56-.1.84-.11.84-.04,1.67.27,2.28.85.58.56.9,1.33.87,2.14,0,.61-.15,1.21-.45,1.74-.29.55-.73.99-1.28,1.28-.66.32-1.38.47-2.11.44-.53,0-1.06-.05-1.58-.17-.4-.1-.78-.28-1.12-.53-.3-.22-.55-.48-.75-.79-.21-.34-.38-.71-.48-1.09l2.63-.29c.03.36.19.7.45.96.23.21.53.33.84.33.35,0,.68-.14.89-.41.26-.35.39-.79.35-1.23.04-.44-.09-.87-.35-1.23-.25-.26-.59-.4-.95-.39-.25,0-.5.07-.73.18-.22.13-.42.29-.58.49l-2.22-.32.81-5.03Z"></path><path class="cls-10" d="M103.96,324.94c0-.43.1-.86.29-1.24.18-.39.49-.7.86-.91.43-.22.9-.33,1.38-.32.68-.04,1.35.21,1.85.67.9,1.02.9,2.56,0,3.58-.5.47-1.17.71-1.85.67-.48.01-.96-.1-1.38-.32-.38-.2-.68-.52-.86-.91-.19-.39-.29-.81-.29-1.24ZM105.76,324.94c-.03.4.06.8.26,1.15.11.16.29.25.48.24.19.01.37-.08.48-.24.2-.35.29-.75.26-1.15.03-.4-.06-.8-.26-1.15-.11-.16-.29-.24-.48-.23-.19-.01-.37.07-.48.23-.2.35-.29.76-.26,1.16h0ZM111.92,322.46h1.36l-5.41,10h-1.33l5.38-10ZM110.72,329.99c0-.43.09-.85.28-1.24.19-.39.49-.7.87-.91.42-.22.9-.33,1.37-.32.69-.04,1.36.21,1.86.67.9,1.03.9,2.56,0,3.58-.5.47-1.18.71-1.86.67-.48.01-.95-.1-1.37-.32-.38-.2-.69-.51-.87-.9-.18-.38-.28-.81-.28-1.23h0ZM112.51,329.99c-.03.4.06.8.25,1.15.11.16.29.24.48.23.19.01.38-.07.49-.23.34-.73.34-1.57,0-2.31-.11-.16-.3-.25-.49-.23-.19-.01-.37.08-.48.24-.2.36-.29.76-.25,1.17v-.02Z"></path><path class="cls-10" d="M155.38,324.74l-2.59.32c-.03-.28-.15-.55-.34-.77-.16-.15-.38-.23-.59-.22-.42,0-.81.25-.98.64-.24.63-.37,1.3-.38,1.97.28-.29.6-.53.96-.7.36-.16.75-.24,1.14-.23.8-.01,1.56.31,2.11.89.58.61.9,1.42.87,2.26,0,.59-.14,1.18-.44,1.69-.28.5-.7.9-1.22,1.16-.61.28-1.27.42-1.94.39-.78.03-1.56-.13-2.26-.48-.6-.36-1.07-.89-1.36-1.53-.38-.88-.56-1.83-.53-2.78,0-1.69.36-2.93,1.05-3.72.76-.81,1.84-1.24,2.95-1.18.6-.02,1.2.07,1.77.26.41.16.77.42,1.05.76.33.36.57.79.72,1.25ZM150.59,328.91c-.03.43.11.86.38,1.19.23.28.58.44.94.43.33,0,.64-.14.86-.39.25-.33.37-.75.34-1.16.03-.43-.09-.86-.35-1.21-.22-.27-.55-.42-.89-.42-.35,0-.68.14-.91.4-.26.32-.38.73-.35,1.15h-.02Z"></path><path class="cls-10" d="M157.65,322.64h6.18v2.07h-4.18l-.23,1.41c.28-.13.57-.23.86-.31.27-.07.55-.1.84-.11.84-.04,1.67.27,2.28.85.58.56.9,1.33.87,2.14,0,.61-.17,1.21-.47,1.75-.29.55-.73.99-1.28,1.28-.66.32-1.38.47-2.11.44-.53,0-1.06-.05-1.58-.17-.4-.1-.78-.28-1.12-.53-.29-.22-.55-.48-.75-.79-.21-.34-.37-.71-.48-1.09l2.63-.29c.04.36.2.7.45.96.23.21.53.33.84.33.35,0,.68-.14.9-.41.26-.36.38-.79.35-1.23.04-.44-.09-.88-.36-1.23-.25-.26-.59-.4-.95-.39-.25,0-.5.07-.73.18-.22.13-.41.29-.57.49l-2.22-.32.82-5.04Z"></path><path class="cls-10" d="M165.42,324.94c0-.43.1-.86.28-1.24.19-.39.49-.7.87-.91.43-.22.9-.33,1.38-.32.68-.04,1.35.21,1.85.67.9,1.02.9,2.56,0,3.58-.5.47-1.17.71-1.85.67-.48.01-.96-.1-1.38-.32-.38-.2-.68-.52-.87-.91-.19-.39-.29-.81-.28-1.24ZM167.22,324.94c-.03.4.06.8.25,1.15.11.16.3.25.49.24.19.01.37-.08.47-.24.2-.35.29-.75.26-1.15.03-.4-.06-.8-.26-1.15-.11-.15-.29-.24-.47-.23-.19-.01-.38.07-.49.23-.2.35-.29.76-.25,1.16h0ZM173.37,322.46h1.35l-5.41,10h-1.34l5.4-10ZM172.17,329.99c0-.43.1-.86.28-1.24.18-.39.49-.71.87-.91.43-.22.9-.33,1.38-.32.69-.04,1.36.21,1.86.67.91,1.02.91,2.56,0,3.58-.5.47-1.17.71-1.86.67-.48.01-.95-.1-1.38-.32-.38-.2-.69-.51-.87-.9-.19-.38-.28-.8-.28-1.23h0ZM173.97,329.99c-.03.4.06.8.26,1.15.11.16.29.24.48.23.19.01.37-.07.48-.23.34-.73.34-1.58,0-2.31-.11-.16-.29-.25-.48-.23-.19-.01-.37.08-.48.24-.2.35-.29.76-.26,1.17v-.02Z"></path><path class="cls-10" d="M220.41,324.74l-2.59.32c-.03-.28-.15-.55-.34-.77-.16-.15-.37-.23-.59-.22-.43,0-.82.24-.98.64-.24.63-.37,1.3-.38,1.97.28-.29.6-.53.96-.7.36-.16.75-.23,1.14-.23.8,0,1.56.32,2.11.89.58.61.89,1.42.86,2.26,0,.59-.14,1.18-.44,1.69-.28.5-.7.91-1.22,1.16-.61.28-1.27.42-1.94.39-.78.03-1.56-.13-2.26-.48-.6-.36-1.07-.89-1.35-1.53-.38-.88-.56-1.83-.53-2.78,0-1.69.36-2.93,1.05-3.72.77-.81,1.85-1.24,2.96-1.18.6-.02,1.2.07,1.76.26.42.16.79.42,1.08.76.32.36.56.79.7,1.25ZM215.62,328.91c-.03.43.11.86.38,1.19.23.28.58.44.94.43.33,0,.64-.14.85-.39.25-.33.38-.75.35-1.16.03-.43-.1-.86-.36-1.21-.22-.27-.55-.42-.89-.42-.35,0-.68.14-.91.4-.26.32-.39.73-.37,1.15h0Z"></path><path class="cls-10" d="M221.6,327.28c0-1.78.32-3.02.96-3.74.64-.71,1.62-1.05,2.93-1.05.53-.02,1.05.06,1.55.24.37.13.71.34.99.61.24.23.45.49.61.78.16.3.28.63.35.96.18.71.27,1.45.26,2.18,0,1.7-.29,2.94-.86,3.73-.58.78-1.57,1.18-2.97,1.18-.66.03-1.31-.1-1.91-.38-.49-.25-.9-.64-1.19-1.11-.26-.44-.44-.92-.53-1.42-.13-.66-.2-1.33-.19-2ZM224.18,327.28c-.06.83.05,1.66.32,2.44.14.39.5.65.92.66.26,0,.5-.1.68-.28.23-.25.37-.55.43-.88.11-.62.16-1.25.14-1.87.06-.85-.05-1.7-.32-2.51-.15-.39-.53-.64-.95-.64-.42,0-.8.26-.93.66-.24.78-.34,1.6-.29,2.42h0Z"></path><path class="cls-10" d="M230.42,324.94c0-.43.1-.86.28-1.24.19-.39.49-.7.87-.91.43-.22.9-.33,1.38-.32.68-.04,1.35.21,1.85.67.9,1.02.9,2.55,0,3.58-.5.47-1.17.71-1.85.67-.48.01-.96-.1-1.38-.32-.38-.2-.68-.52-.87-.91-.19-.39-.29-.81-.28-1.24ZM232.22,324.94c-.03.4.06.8.26,1.15.21.27.59.31.86.11.04-.03.08-.07.11-.11.2-.35.28-.75.25-1.15.03-.4-.06-.8-.25-1.15-.22-.27-.62-.3-.88-.08-.03.02-.06.05-.08.08-.2.35-.28.76-.24,1.16h-.02ZM238.37,322.46h1.35l-5.41,10h-1.34l5.4-10ZM237.18,329.99c0-.43.09-.85.28-1.24.19-.39.49-.7.87-.91.43-.22.9-.33,1.38-.32.69-.04,1.36.21,1.86.67.91,1.02.91,2.56,0,3.58-.5.47-1.17.71-1.86.67-.48.01-.95-.1-1.38-.32-.38-.2-.68-.51-.87-.9-.18-.38-.28-.81-.28-1.23h0ZM238.97,329.99c-.03.4.06.8.26,1.15.11.16.29.24.48.23.19.01.37-.07.48-.23.34-.73.34-1.58,0-2.31-.21-.27-.59-.31-.86-.11-.04.03-.08.07-.11.11-.2.36-.29.77-.26,1.17v-.02Z"></path><path class="cls-10" d="M280.51,322.64h6.18v2.07h-4.21l-.23,1.41c.28-.13.56-.23.86-.31.28-.07.56-.1.84-.11.84-.03,1.67.27,2.28.85.58.56.9,1.33.87,2.14,0,.61-.16,1.21-.45,1.74-.29.55-.73.99-1.27,1.28-.66.32-1.38.47-2.11.44-.53,0-1.06-.05-1.58-.17-.41-.1-.79-.28-1.13-.53-.29-.22-.55-.49-.75-.79-.21-.34-.37-.71-.48-1.09l2.63-.29c.03.36.19.7.45.96.22.21.52.33.83.33.35,0,.68-.14.9-.41.26-.35.39-.79.35-1.23.04-.44-.09-.88-.36-1.23-.24-.26-.59-.4-.95-.39-.26,0-.51.06-.73.18-.22.13-.41.29-.57.49l-2.22-.32.83-5.03Z"></path><path class="cls-10" d="M288.18,327.28c0-1.78.32-3.02.96-3.74.64-.71,1.62-1.06,2.93-1.05.53-.02,1.05.06,1.55.24.37.13.71.34.99.61.24.23.44.49.6.78.16.3.28.63.35.96.18.71.27,1.45.27,2.18,0,1.7-.29,2.94-.87,3.73-.58.78-1.57,1.18-2.97,1.18-.66.03-1.31-.1-1.91-.38-.49-.25-.9-.63-1.19-1.11-.26-.44-.44-.92-.53-1.42-.13-.66-.19-1.33-.19-2ZM290.76,327.28c-.05.83.05,1.66.32,2.44.14.39.5.65.92.66.26,0,.51-.1.69-.28.22-.25.37-.55.43-.88.11-.62.15-1.25.14-1.87.06-.85-.05-1.7-.32-2.51-.16-.38-.54-.64-.95-.64-.42,0-.8.26-.93.66-.24.78-.33,1.6-.28,2.42Z"></path><path class="cls-10" d="M296.98,324.94c0-.43.1-.86.28-1.24.19-.39.49-.71.87-.91.43-.22.9-.33,1.38-.32.68-.04,1.35.21,1.85.67.9,1.02.9,2.56,0,3.58-.5.47-1.17.71-1.85.67-.48.01-.95-.1-1.38-.32-.38-.2-.69-.52-.87-.91-.19-.39-.29-.81-.28-1.24ZM298.77,324.94c-.03.4.06.8.26,1.15.11.16.29.25.48.24.19.01.37-.08.48-.24.2-.35.28-.75.25-1.15.03-.4-.06-.8-.25-1.15-.11-.16-.29-.24-.48-.23-.19-.01-.37.07-.48.23-.19.35-.28.76-.24,1.16h-.02ZM304.93,322.46h1.35l-5.41,10h-1.32l5.37-10ZM303.73,329.99c0-.43.09-.86.28-1.24.19-.39.49-.7.87-.91.43-.22.9-.33,1.38-.32.69-.04,1.36.21,1.86.67.91,1.02.91,2.56,0,3.58-.5.47-1.17.71-1.86.67-.48.01-.95-.1-1.38-.32-.38-.2-.68-.51-.87-.9-.18-.39-.27-.81-.26-1.23h-.02ZM305.53,329.99c-.03.4.06.8.25,1.15.11.16.29.24.48.23.19.01.37-.07.49-.23.34-.73.34-1.57,0-2.31-.11-.16-.3-.24-.49-.23-.19-.01-.37.08-.48.24-.19.36-.27.76-.23,1.17l-.02-.02Z"></path><path class="cls-10" d="M345.41,330.25h-4.74v-2.14l4.74-5.64h2.27v5.76h1.17v2.02h-1.17v1.77h-2.27v-1.77ZM345.41,328.23v-2.95l-2.51,2.95h2.51Z"></path><path class="cls-10" d="M350.67,322.64h6.18v2.07h-4.18l-.23,1.41c.28-.13.56-.23.86-.31.28-.07.56-.1.84-.11.84-.04,1.67.27,2.28.85.58.56.9,1.33.87,2.14,0,.61-.15,1.21-.45,1.74-.29.55-.73.99-1.28,1.28-.66.32-1.38.47-2.11.44-.53,0-1.06-.05-1.58-.17-.41-.1-.79-.28-1.13-.53-.29-.22-.55-.48-.75-.79-.21-.34-.37-.71-.48-1.09l2.63-.29c.04.36.19.7.45.96.23.21.53.33.84.33.35,0,.68-.14.9-.41.26-.36.38-.79.35-1.23.04-.44-.09-.88-.36-1.23-.25-.26-.59-.4-.95-.39-.25,0-.5.07-.73.18-.22.13-.41.29-.57.49l-2.22-.32.81-5.03Z"></path><path class="cls-10" d="M358.46,324.94c0-.43.09-.85.28-1.24.19-.39.49-.7.87-.91.43-.22.9-.33,1.38-.32.68-.04,1.35.21,1.85.67.9,1.02.9,2.56,0,3.58-.5.47-1.17.71-1.85.67-.48.01-.95-.1-1.38-.32-.38-.2-.69-.52-.87-.91-.18-.39-.28-.81-.28-1.24ZM360.25,324.94c-.03.4.06.8.25,1.15.11.16.29.25.48.24.19.01.37-.08.48-.24.2-.35.29-.75.26-1.15.03-.4-.06-.8-.26-1.15-.11-.16-.29-.24-.48-.23-.19-.01-.37.07-.48.23-.2.35-.29.76-.25,1.16h0ZM366.41,322.46h1.35l-5.41,10h-1.34l5.4-10ZM365.21,329.99c0-.43.1-.86.28-1.24.18-.39.49-.7.86-.91.43-.22.9-.33,1.38-.32.69-.04,1.36.21,1.86.67.9,1.03.9,2.56,0,3.58-.5.47-1.17.71-1.86.67-.48.01-.96-.1-1.38-.32-.38-.2-.68-.51-.86-.9-.19-.38-.28-.8-.28-1.23h0ZM367,329.99c-.03.4.06.8.26,1.15.11.16.29.24.48.23.19.01.37-.07.48-.23.34-.73.34-1.57,0-2.31-.11-.16-.29-.25-.48-.23-.19-.01-.37.08-.48.24-.21.35-.31.76-.27,1.17l.02-.02Z"></path><path class="cls-10" d="M423.46,324.94c0-.43.1-.86.28-1.24.19-.39.49-.7.87-.91.43-.22.9-.33,1.38-.32.69-.04,1.36.21,1.86.67.9,1.02.9,2.55,0,3.58-.5.47-1.17.71-1.86.67-.48.01-.95-.1-1.38-.32-.38-.2-.68-.52-.87-.91-.19-.39-.29-.81-.28-1.24ZM425.26,324.94c-.03.4.06.8.25,1.15.11.16.29.25.48.24.19.02.38-.07.48-.24.2-.35.28-.75.25-1.15.03-.4-.06-.8-.25-1.15-.11-.15-.29-.24-.48-.23-.19,0-.37.07-.48.23-.2.35-.29.76-.25,1.16h0ZM431.41,322.46h1.37l-5.41,10h-1.33l5.37-10ZM430.21,329.99c0-.43.1-.86.28-1.24.19-.39.49-.7.87-.91.43-.22.9-.33,1.38-.32.69-.04,1.36.21,1.86.67.9,1.03.9,2.56,0,3.58-.5.47-1.17.71-1.86.67-.48.01-.95-.1-1.38-.32-.38-.2-.68-.51-.87-.9-.19-.38-.28-.8-.28-1.23h0ZM432.01,329.99c-.03.4.06.8.25,1.15.11.16.29.24.48.23.19.01.37-.07.48-.23.34-.73.34-1.58,0-2.31-.11-.16-.29-.25-.48-.23-.19-.01-.37.08-.48.24-.2.36-.29.76-.25,1.17v-.02Z"></path><path class="cls-10" d="M413.96,331.89h-7.71c.09-.77.37-1.51.81-2.15.71-.92,1.56-1.72,2.52-2.37.53-.36,1.02-.79,1.44-1.27.19-.23.3-.52.32-.83,0-.27-.11-.53-.31-.72-.45-.4-1.13-.4-1.58,0-.25.31-.4.69-.42,1.09l-2.57-.21c.06-.6.25-1.18.56-1.69.28-.41.68-.74,1.14-.94.65-.24,1.34-.35,2.04-.32.72-.03,1.43.07,2.11.31.48.19.9.52,1.19.95.28.42.44.92.43,1.43,0,.58-.18,1.14-.49,1.62-.49.67-1.1,1.24-1.81,1.69-.53.36-.86.61-1.05.75s-.38.33-.62.56h4.02v2.1Z"></path><path class="cls-10" d="M416.1,322.65h6.1v2.05h-4.15l-.22,1.39c.27-.13.56-.23.85-.31.27-.06.55-.1.83-.1.83-.04,1.65.27,2.25.84.57.55.88,1.31.86,2.11,0,.6-.15,1.19-.44,1.72-.28.54-.72.98-1.26,1.26-.66.31-1.38.46-2.11.43-.53.01-1.06-.05-1.58-.17-.4-.1-.78-.28-1.11-.53-.29-.21-.54-.48-.74-.78-.21-.34-.37-.7-.47-1.08l2.6-.28c.04.36.19.69.44.95.48.45,1.24.43,1.69-.05,0,0,.02-.02.03-.03.26-.35.38-.78.35-1.22.04-.43-.09-.86-.35-1.21-.24-.26-.59-.4-.94-.38-.25,0-.5.07-.72.18-.22.12-.41.29-.57.48l-2.19-.32.86-4.95Z"></path><rect class="cls-10" x="61.45" y="304.34" width="396.51" height="1.44"></rect></g></svg>