<svg transform="scale(1)" id="_0358_it_support" xmlns="http://www.w3.org/2000/svg" xmlns:xlink="http://www.w3.org/1999/xlink" viewBox="0 0 500 500" class="show_show__wrapper__graphic__5Waiy "><title>React</title><defs><style>.cls-1{opacity:.45;}.cls-1,.cls-2,.cls-3,.cls-4,.cls-5,.cls-6,.cls-7,.cls-8,.cls-9,.cls-10,.cls-11,.cls-12,.cls-13,.cls-14,.cls-15,.cls-16,.cls-17,.cls-18,.cls-19,.cls-20,.cls-21,.cls-22,.cls-23,.cls-24,.cls-25{stroke-width:0px;}.cls-1,.cls-3,.cls-4{isolation:isolate;}.cls-1,.cls-3,.cls-4,.cls-25{fill:#68e1fd;}.cls-2{fill:url(#linear-gradient);}.cls-3{opacity:.51;}.cls-4{opacity:.18;}.cls-5{fill:url(#linear-gradient-11);}.cls-6{fill:url(#linear-gradient-12);}.cls-7{fill:url(#linear-gradient-13);}.cls-8{fill:url(#linear-gradient-10);}.cls-9{fill:url(#linear-gradient-17);}.cls-10{fill:url(#linear-gradient-16);}.cls-11{fill:url(#linear-gradient-15);}.cls-12{fill:url(#linear-gradient-18);}.cls-13{fill:url(#linear-gradient-14);}.cls-14{fill:url(#linear-gradient-4);}.cls-15{fill:url(#linear-gradient-2);}.cls-16{fill:url(#linear-gradient-3);}.cls-17{fill:url(#linear-gradient-8);}.cls-18{fill:url(#linear-gradient-9);}.cls-19{fill:url(#linear-gradient-7);}.cls-20{fill:url(#linear-gradient-5);}.cls-21{fill:url(#linear-gradient-6);}.cls-22{fill:#231f20;}.cls-23{fill:#fff;}.cls-24{fill:#ffb4a3;}</style><linearGradient id="linear-gradient" x1="560.55" y1="2976.17" x2="553.66" y2="2838.58" gradientTransform="translate(-2799.08 -206.05) rotate(88.09) scale(1 -1)" gradientUnits="userSpaceOnUse"><stop offset=".02" stop-color="#fff" stop-opacity="0"></stop><stop offset=".58" stop-color="#fff" stop-opacity=".39"></stop><stop offset=".68" stop-color="#fff" stop-opacity=".68"></stop><stop offset="1" stop-color="#fff"></stop></linearGradient><linearGradient id="linear-gradient-2" x1="668.89" y1="2905.21" x2="641.56" y2="2839.8" gradientTransform="translate(-475.03 3090.1) scale(1 -1)" xlink:href="#linear-gradient"></linearGradient><linearGradient id="linear-gradient-3" x1="804.71" y1="2787.45" x2="725.74" y2="2783.98" gradientTransform="translate(-475.03 3090.1) scale(1 -1)" gradientUnits="userSpaceOnUse"><stop offset="0" stop-color="#000"></stop><stop offset="1" stop-color="#000" stop-opacity="0"></stop></linearGradient><linearGradient id="linear-gradient-4" x1="1001.74" y1="2546.59" x2="745.29" y2="2783.51" xlink:href="#linear-gradient-3"></linearGradient><linearGradient id="linear-gradient-5" x1="729.23" y1="2702.91" x2="731.18" y2="2670.04" gradientTransform="translate(-471 3119.55) scale(1 -1)" xlink:href="#linear-gradient-3"></linearGradient><linearGradient id="linear-gradient-6" x1="791.43" y1="2879.82" x2="784.7" y2="2827.1" xlink:href="#linear-gradient-3"></linearGradient><linearGradient id="linear-gradient-7" x1="785.12" y1="2831.37" x2="809.53" y2="2808.26" gradientTransform="translate(-475.03 3090.1) scale(1 -1)" gradientUnits="userSpaceOnUse"><stop offset=".02" stop-color="#fff" stop-opacity="0"></stop><stop offset=".58" stop-color="#fff" stop-opacity=".39"></stop><stop offset="1" stop-color="#fff"></stop></linearGradient><linearGradient id="linear-gradient-8" x1="781.27" y1="2820.14" x2="757.67" y2="2818.51" xlink:href="#linear-gradient-7"></linearGradient><linearGradient id="linear-gradient-9" x1="775.68" y1="2890.96" x2="658.53" y2="2683.97" xlink:href="#linear-gradient-3"></linearGradient><linearGradient id="linear-gradient-10" x1="701.57" y1="2611.75" x2="629.98" y2="2810.92" gradientTransform="translate(-475.03 3090.1) scale(1 -1)" gradientUnits="userSpaceOnUse"><stop offset="0" stop-color="#000"></stop><stop offset=".09" stop-color="#000" stop-opacity=".82"></stop><stop offset="1" stop-color="#000" stop-opacity="0"></stop></linearGradient><linearGradient id="linear-gradient-11" x1="777.29" y1="2982.78" x2="779.67" y2="2957.83" xlink:href="#linear-gradient-3"></linearGradient><linearGradient id="linear-gradient-12" x1="752.12" y1="2953.88" x2="740.08" y2="2906.68" gradientTransform="translate(-471 3119.55) scale(1 -1)" xlink:href="#linear-gradient-3"></linearGradient><linearGradient id="linear-gradient-13" x1="805.51" y1="2948.85" x2="785.99" y2="2933.23" xlink:href="#linear-gradient-3"></linearGradient><linearGradient id="linear-gradient-14" x1="822.44" y1="2929.4" x2="805.9" y2="2926.09" gradientTransform="translate(-471 3119.55) scale(1 -1)" xlink:href="#linear-gradient-3"></linearGradient><linearGradient id="linear-gradient-15" x1="828.73" y1="2956.1" x2="791.31" y2="2939.82" xlink:href="#linear-gradient-3"></linearGradient><linearGradient id="linear-gradient-16" x1="748.12" y1="2915.9" x2="750.5" y2="2949.96" xlink:href="#linear-gradient-3"></linearGradient><linearGradient id="linear-gradient-17" x1="794.65" y1="2885.15" x2="806.52" y2="2860.75" gradientTransform="translate(-475.03 3090.1) scale(1 -1)" xlink:href="#linear-gradient"></linearGradient><linearGradient id="linear-gradient-18" x1="782" y1="2877.82" x2="767.68" y2="2848.97" xlink:href="#linear-gradient-3"></linearGradient></defs><g id="background"><path class="cls-4" d="M438.44,423c24.41-9.22,46.47-28.95,51.26-54.61,3.94-21.17-4.18-42.66-14.06-61.81-9.88-19.15-21.85-37.65-26.46-58.68-8.59-39.11,9.13-82.49-7.7-118.81-5.06-10.91-12.97-20.31-21.9-28.33-39.07-34.91-97.74-42.73-147.79-27.29-50.05,15.44-91.83,51.48-122.56,93.88-12.68,17.48-23.7,36.14-37.53,52.71-18.42,22.07-42.33,41.43-50.33,69-5.82,19.92-2.31,41.5,4.61,61.1,10.64,30.04,56.49,83.48,78.31,83.38,48.64-.24,141.96,2.14,187.05.42,33.78-1.33,71.74,2.4,107.1-10.95Z"></path></g><g id="screen"><rect class="cls-1" x="22.2" y="71.87" width="205.11" height="234.56" rx="18.03" ry="18.03"></rect><circle class="cls-2" cx="84.05" cy="253.31" r="30.69" transform="translate(-171.91 328.88) rotate(-88.09)"></circle><rect class="cls-25" x="40.47" y="94.11" width="131.09" height="7.38"></rect><rect class="cls-3" x="44.42" y="191.13" width="131.09" height="7.38"></rect><rect class="cls-25" x="44.42" y="178.51" width="93.19" height="7.38"></rect><rect class="cls-25" x="150.36" y="178.51" width="62.38" height="7.38"></rect><rect class="cls-25" x="116.62" y="131.8" width="95.92" height="6.56"></rect><rect class="cls-3" x="96.52" y="143.44" width="102.62" height="6.56"></rect><rect class="cls-25" x="46.21" y="131.8" width="63.08" height="6.56"></rect><rect class="cls-25" x="73.88" y="154.74" width="138.66" height="6.56"></rect><rect class="cls-3" x="46.21" y="154.74" width="20.36" height="6.56"></rect><rect class="cls-3" x="121.01" y="166.38" width="91.51" height="6.56"></rect><rect class="cls-25" x="46.21" y="166.38" width="63.08" height="6.56"></rect><rect class="cls-25" x="46.21" y="143.16" width="40.57" height="6.56"></rect><path class="cls-25" d="M90.85,233.13c-1.8,2.2-2.1,5.28-1.76,8.07.1.51.1,1.03,0,1.53-.15.43-.39.82-.69,1.15-4.89,6.07-10.36,11.65-16.34,16.65-.17.16-.37.29-.59.37-.39.08-.8.02-1.15-.16-1.73-.68-3.59-1.42-5.4-.98-1.66.5-2.99,1.76-3.56,3.4-.56,1.63-.65,3.38-.27,5.06,1.97-1.64,4.02-3.17,6.14-4.61l3.03,3.01c.32.24.51.61.53,1.01-.06.24-.18.45-.36.62l-4.47,5.28c3,1.2,6.42.63,8.87-1.48,2.31-2.19,2.65-6.28.39-8.49l17.17-19.24c2.38,1.76,5.64,1.71,7.97-.12,2.23-1.89,3.36-4.78,3-7.68-2.14,1.28-4.12,2.8-5.9,4.54l-3.46-4.31c1.22-1.15,5.96-4.33,2.88-5.58-2.03-.82-4.72.33-6.03,1.94Z"></path><path class="cls-15" d="M190.21,264.23l1.65-5.25s-6.51-5.14-6.71-4.82l-.27-3.79,5.96-6.34-2.74-4.76s-8.07,1.31-8.07,1.68c-1.56-1.46-3.23-2.79-5.01-3.98l-.25-8.65-5.3-1.44s-4.85,6.73-4.53,6.92c0,0-3.74.78-5.52,1.35l-6.04-5.14-4.61,2.97s1.37,6.42,1.91,7.77c-1.29,1.42-2.91,3.02-2.91,3.02l-8.6,1.38-.74,5.44s6.05,3.27,7.23,3.61c.02,1.76.3,3.51.81,5.2l-4.69,7.22,3.54,4.2s4.69-1.65,6.73-2.55c1.9,1.73,4.61,3.78,4.61,3.78l2.17,8.44,5.49.23s2.64-6.14,2.92-7.49c1.77-.2,3.55-.22,5.31-.07l7.71,4.05,3.86-3.92c-1.11-2.49-2.36-4.92-3.72-7.29.49-.6.93-1.23,1.33-1.89l8.5.12ZM164.62,264.43c-6.02,0-10.91-4.87-10.92-10.89,0-6.02,4.87-10.91,10.89-10.92,6.02,0,10.91,4.87,10.92,10.89h0c0,6.03-4.88,10.9-10.89,10.92Z"></path></g><g id="character"><path class="cls-24" d="M229.94,382.52c-1.15,3.29-2.17,7.06-.5,10.11,1.12,1.7,2.62,3.12,4.39,4.13l15.91,10.81c3.06,2.08,6.29,4.21,9.96,4.48s7.83-2.06,8.14-5.76c.37-4.23-4.07-7.12-6.14-10.84-2.72-4.87-1.22-10.89.2-16.29,3.58-13.58,6.19-27.39,7.82-41.34-3.26-1.34-12.76-7.32-16.14-6.33-3.8,1.15-7.24,11.79-8.93,15.26-5.73,11.56-10.64,23.51-14.7,35.76Z"></path><path class="cls-23" d="M260.46,291.27c-4.13,11.72-8.51,23.48-15.13,34.02-.24.31-.37.68-.36,1.07.11.37.33.68.65.9,6.65,5.82,13.83,11.9,22.58,13.15.57.13,1.17.08,1.71-.15.51-.36.88-.87,1.06-1.46,5.58-12.92,7.55-27.08,7.37-41.08-.12-6.99-.68-13.97-1.66-20.89-.23-1.68-.36-9.15-1.82-10.03-2.23-1.31-4.67,3.27-5.64,4.72-4.01,6.01-6.39,12.92-8.76,19.75Z"></path><path class="cls-16" d="M278.55,268.93s-5.2,1.95-9.43,16.59c-4.23,14.64-14.33,50.13-14.33,50.13,0,0,15.62,7.8,19.53,4.88,3.91-2.93,4.23-71.59,4.23-71.59Z"></path><path class="cls-23" d="M322.86,253.85c8.51-.27,17.12.15,25.31,2.46s15.97,6.66,21.34,13.27c5.95,7.31,8.55,16.87,9.15,26.26s-.65,18.81-1.59,28.2c-2.21,21.97-2.8,44.06-1.75,66.12.25,5.28,3.27,32.85-.44,36.62-2.31,2.37,2.31,4.75-.98,5.53-26.86,6.46-75.12,3.29-100.55-7.48-6.47-2.74-12.96-6.56-16.14-12.81-3.46-6.77,5.88-33.59,7-41.12,3.39-22.97,5.83-46.07,7.33-69.29.66-10.27-.1-21.34,2.01-31.43,1.53-7.32,6.25-9.32,13.05-11.11,11.86-3.08,24.02-4.83,36.27-5.21Z"></path><path class="cls-14" d="M344.96,374.03c-.89,4.67-2.05,9.55-5.25,13.07-2.53,2.52-5.62,4.41-9.02,5.51-16.02,6.04-34.3,5.1-49.65,12.68-1.08.47-2.08,1.13-2.95,1.93-2.96,2.93-2.13,8.07.22,11.53,5.22,7.64,15.38,9.79,24.54,11.21,21.97,3.46,44.41,6.28,66.37,2.74,1.2-.09,2.34-.52,3.29-1.26.76-.88,1.24-1.96,1.39-3.11,4.98-22.11,1.06-45.13.97-67.8,0-13.07,1.15-26.16.27-39.2-.45-8.11-2.13-16.11-5-23.71-2.04-5.16-8.01-16.57-11.6-5.98-5.7,16.82-7.33,34.95-9.38,52.49-1.12,10-2.32,20-4.2,29.91Z"></path><rect class="cls-25" x="156.04" y="414.57" width="205.26" height="18.93" rx="9.47" ry="9.47"></rect><rect class="cls-20" x="156.04" y="414.57" width="205.26" height="18.93" rx="9.47" ry="9.47"></rect><path class="cls-24" d="M302.31,271.76c-3.82-.61-5.96-4.45-4.25-13.7.18-1.03.43-2.02.7-3.01,0-.18.1-.37.15-.55h0c.42-1.43.89-2.86,1.35-4.28,1.28-3.4,1.96-7,2.01-10.64-.1-2.65-.31-5.41.67-7.85.94-2.07,2.42-3.86,4.28-5.18,4.12-3.17,16.14-9.13,18.45-1.26,1.03,3.37.28,7.29.23,10.73-.23,4.94.68,9.87,2.65,14.4,2.51,5.05-16.85,22.83-26.23,21.33Z"></path><path class="cls-21" d="M299.6,252.98s21.26-8.07,25.36-20.83l-22.65,7.41s-.54,11.68-2.71,13.42Z"></path><path class="cls-23" d="M357.23,280.58c-2.17,24.12,1.83,48.39,11.62,70.54.29.82.78,1.55,1.42,2.13,1.03.64,2.24.94,3.46.85,9.48.2,18.76-2.78,26.35-8.46,2.31-1.74,4.47-3.97,4.67-6.68,0-1.45-.28-2.89-.84-4.23-5.89-17.1-12.76-33.85-20.58-50.16-2.91-6.04-6.8-13.12-13.83-15.78-8.46-3.19-11.68,5.46-12.27,11.78Z"></path><path class="cls-25" d="M316.04,294.37c6.31-6.65,10.93-14.69,15.49-22.63,2.78-4.84,5.63-9.9,6.02-15.48.1-.63,0-1.28-.29-1.86-.28-.4-.64-.73-1.06-.98l-8.66-5.87c-.15,5.31-3.97,9.88-8.32,12.94-4.61,3.27-17.81,6.86-14.99,13.65.7,1.72,11.07,21.01,11.81,20.23Z"></path><path class="cls-25" d="M302.31,271.76c-2.6,5.12-5.49,10.09-8.66,14.88-1.22,1.86-2.59,3.78-4.61,4.61-.26.13-.56.17-.84.12-.51-.17-.62-.84-.66-1.37-.43-8.87-.84-17.88,1.33-26.52.69-3.06,1.95-5.96,3.74-8.54.62-.83,5.6-4.4,7.7-4.78-.46,1.42-.93,2.85-1.35,4.28h0c-.07.13-.12.28-.14.43v.13c-.28.99-.52,1.98-.7,3.01-1.73,9.32.42,13.15,4.2,13.77Z"></path><path class="cls-19" d="M316.04,294.37c6.31-6.65,10.93-14.69,15.49-22.63,2.78-4.84,5.63-9.9,6.02-15.48.1-.63,0-1.28-.29-1.86-.28-.4-.64-.73-1.06-.98l-8.66-5.87c-.15,5.31-3.97,9.88-8.32,12.94-4.61,3.27-17.81,6.86-14.99,13.65.7,1.72,11.07,21.01,11.81,20.23Z"></path><path class="cls-17" d="M302.31,271.76c-2.6,5.12-5.49,10.09-8.66,14.88-1.22,1.86-2.59,3.78-4.61,4.61-.26.13-.56.17-.84.12-.51-.17-.62-.84-.66-1.37-.43-8.87-.84-17.88,1.33-26.52.69-3.06,1.95-5.96,3.74-8.54.62-.83,5.6-4.4,7.7-4.78-.46,1.42-.93,2.85-1.35,4.28h0c-.07.13-.12.28-.14.43v.13c-.28.99-.52,1.98-.7,3.01-1.73,9.32.42,13.15,4.2,13.77Z"></path><path class="cls-24" d="M365.3,418.9l50.5-9.65c2.99-.58,6.1-1.15,8.46-3.11,3.24-2.61,4.38-7.17,3.91-11.31-.47-4.14-2.31-7.98-4.13-11.74-7.17-14.85-21.72-41.5-21.81-39.95-8.83,1.87-16.14,1.96-23.73,6.81-1.31.7-2.41,1.73-3.2,2.99-3.03,5.76,5.26,14.18,8.07,18.56,1.08,1.4,1.8,3.04,2.1,4.78.06,1.23-.17,2.46-.67,3.59-2.73,6.71-12.46,10.62-18.45,14.06-7.82,4.73-16.59,7.67-25.69,8.62-7.06.6-14.26-.31-21.16,1.27-8.56,2.04-15.8,7.69-19.86,15.49,4.1,2.61,9.44,1.1,14.17-.09,8.76-2.17,17.81-2.9,26.8-2.16,5.83.5,21.92,7.25,24.68,1.82Z"></path><path class="cls-25" d="M287.23,433.51h-142.96l-37.71-95.69c-1.73-4.31.37-9.2,4.68-10.93,1-.4,2.06-.6,3.14-.6h112.22c11.12,0,21.11,6.79,25.19,17.14l35.44,90.07Z"></path><path class="cls-18" d="M287.23,433.51h-142.96l-37.71-95.69c-1.73-4.31.37-9.2,4.68-10.93,1-.4,2.06-.6,3.14-.6h112.22c11.12,0,21.11,6.79,25.19,17.14l35.44,90.07Z"></path><path class="cls-8" d="M279.97,433.61h-135.83l-35.83-90.86c-1.62-4.11.4-8.74,4.51-10.36.93-.37,1.92-.55,2.92-.56h106.59c10.56,0,20.05,6.47,23.93,16.29l33.71,85.49Z"></path><path class="cls-25" d="M297.7,117.84c3.46-2.03,6.92-4.09,10.83-4.85,3.91-.76,9.22-.3,11.86,2.65-6.92.49-13.32,3.86-17.63,9.3-.2.35-.51.62-.89.76-.32.03-.65-.03-.93-.17-1.59-.6-13.51,2.12-14.2.68.03,0,9.5-7.48,10.96-8.37Z"></path><path class="cls-5" d="M297.7,117.84c3.46-2.03,6.92-4.09,10.83-4.85,3.91-.76,9.22-.3,11.86,2.65-6.92.49-13.32,3.86-17.63,9.3-.2.35-.51.62-.89.76-.32.03-.65-.03-.93-.17-1.59-.6-13.51,2.12-14.2.68.03,0,9.5-7.48,10.96-8.37Z"></path><ellipse class="cls-25" cx="271.93" cy="188.51" rx="14" ry="17.25"></ellipse><ellipse class="cls-25" cx="274.8" cy="190.45" rx="12.95" ry="15.96"></ellipse><ellipse class="cls-6" cx="274.8" cy="190.45" rx="12.95" ry="15.96"></ellipse><path class="cls-24" d="M270.25,158.31l3.24,59.27s1.44,22.37,23.61,22.58c26.63.27,34.74-15.22,38.78-27,4.05-11.78,7.7-46.39,0-55.96-7.7-9.57-51.04-33.12-65.63,1.11Z"></path><path class="cls-22" d="M287.09,122.72c-10.44-.18-22.38,4.69-27.14,14.55-2.31,4.59-2.43,9.99-.32,14.68.38.68.68,1.4.9,2.16.1.83.1,1.67,0,2.5-.18,4.07,1.67,7.96,4.95,10.38,1.83,1.33,4.06,2.16,5.52,3.87l-.56-11.03c-.27-1.24.51-2.47,1.75-2.74l7.02-3.27s2.17,1.58,2.43,1.71c1.17.5,2.42.74,3.69.7,2.75.06,5.5-.09,8.23-.46,5.89-.84,11.53-3,17.03-5.14-.18,1.7-.92,3.3-2.1,4.54l17.9,3.46c2.62,3.61,4.74,7.55,6.28,11.74,1.24,3.27,2.05,6.68,2.42,10.16.48,4.72.04,9.5-1.3,14.05,1.22-.93,2.28-2.04,3.16-3.3,1.62,1.12,3.41,1.98,5.3,2.52.39.15.82.18,1.23.1.88-.24,1.06-1.28,1.15-2.11.71-7.44,6.25-13.72,8.78-20.82,3.08-8.6,1.52-18.27-3.18-26.24-1.39-2.52-3.29-4.74-5.57-6.5-8.24-6.04-19.96-3.27-29.36-6.43-4.47-1.5-8.07-4.35-12.35-6.23-4.75-2.02-10.7-2.74-15.87-2.84Z"></path><path class="cls-7" d="M287.09,122.72c-10.44-.18-22.38,4.69-27.14,14.55-2.31,4.59-2.43,9.99-.32,14.68.38.68.68,1.4.9,2.16.1.83.1,1.67,0,2.5-.18,4.07,1.67,7.96,4.95,10.38,1.83,1.33,4.06,2.16,5.52,3.87l-.56-11.03c-.27-1.24.51-2.47,1.75-2.74l7.02-3.27s2.17,1.58,2.43,1.71c1.17.5,2.42.74,3.69.7,2.75.06,5.5-.09,8.23-.46,5.89-.84,11.53-3,17.03-5.14-.18,1.7-.92,3.3-2.1,4.54l17.9,3.46c2.62,3.61,4.74,7.55,6.28,11.74,1.24,3.27,2.05,6.68,2.42,10.16.48,4.72.04,9.5-1.3,14.05,1.22-.93,2.28-2.04,3.16-3.3,1.62,1.12,3.41,1.98,5.3,2.52.39.15.82.18,1.23.1.88-.24,1.06-1.28,1.15-2.11.71-7.44,6.25-13.72,8.78-20.82,3.08-8.6,1.52-18.27-3.18-26.24-1.39-2.52-3.29-4.74-5.57-6.5-8.24-6.04-19.96-3.27-29.36-6.43-4.47-1.5-8.07-4.35-12.35-6.23-4.75-2.02-10.7-2.74-15.87-2.84Z"></path><ellipse class="cls-25" cx="349.02" cy="190.64" rx="13.85" ry="17.07"></ellipse><ellipse class="cls-13" cx="349.02" cy="190.64" rx="13.85" ry="17.07"></ellipse><ellipse class="cls-25" cx="354.33" cy="190.64" rx="13.85" ry="17.07"></ellipse><path class="cls-25" d="M354.43,174.92l-6.92.74-1.65.17-6.92-34.04c-3.6-13.47-12.39-23.82-23.43-27.83-1.71-.6-3.53-.81-5.33-.63l-4.72.43,2.31-.61,4.61-1.22c1.44-.4,2.93-.58,4.43-.54,12.31.45,23.99,10.38,28.22,24.6l9.38,38.94Z"></path><path class="cls-11" d="M354.43,174.92l-6.92.74-1.65.17-6.92-34.04c-3.6-13.47-12.39-23.82-23.43-27.83-1.71-.6-3.53-.81-5.33-.63l-4.72.43,2.31-.61,4.61-1.22c1.44-.4,2.93-.58,4.43-.54,12.31.45,23.99,10.38,28.22,24.6l9.38,38.94Z"></path><path class="cls-25" d="M354.43,174.92l-6.92.74-6.92-34.12c-3.65-13.6-12.53-24.04-23.67-28.08-1.72-.62-3.56-.84-5.38-.65l-3.76.33,4.61-1.22c1.44-.4,2.93-.58,4.43-.54,12.31.45,23.99,10.38,28.22,24.6l9.38,38.94Z"></path><path class="cls-10" d="M262.8,155.32c2.04-4.04,6.47-6.43,10.93-7.16,4.46-.73,9.03-.06,13.49.62-4.32,3.46-16.39,8.61-16.62,9.53-.16,1.63-.18,3.28-.06,4.91.16,2.37.24,4.87.23,7.24-1.11-1.09-2.36-2.04-3.71-2.81-1.16-.45-2.22-1.13-3.11-1.99-2.38-2.92-2.83-6.97-1.14-10.34Z"></path><path class="cls-25" d="M321.51,232.02c-5.21-.11-10.37-.97-15.33-2.56-1.22-.37-1.92-1.65-1.55-2.88.37-1.22,1.65-1.92,2.88-1.55h0c11.87,3.57,20.81,3.1,26.52-1.41,7.77-6.1,7.26-17.72,7.26-17.83-.06-1.27.92-2.36,2.19-2.42,1.27-.06,2.36.92,2.42,2.19,0,.56.61,14.15-9.03,21.71-4.01,3.16-9.13,4.74-15.36,4.75Z"></path><path class="cls-9" d="M321.51,232.02c-5.21-.11-10.37-.97-15.33-2.56-1.22-.37-1.92-1.65-1.55-2.88.37-1.22,1.65-1.92,2.88-1.55h0c11.87,3.57,20.81,3.1,26.52-1.41,7.77-6.1,7.26-17.72,7.26-17.83-.06-1.27.92-2.36,2.19-2.42,1.27-.06,2.36.92,2.42,2.19,0,.56.61,14.15-9.03,21.71-4.01,3.16-9.13,4.74-15.36,4.75Z"></path><path class="cls-25" d="M307.38,221.14c1.32.66,2.36,1.79,2.92,3.16.51,1.96-1.01,3.84-2.58,5.12-1.35,1.2-3.01,2-4.78,2.31-2.61.31-5.1-1.1-7.26-2.58-1.21-.74-2.24-1.73-3.02-2.92-2.01-3.53.59-8.07,3.99-9.57,3.77-1.63,7.78,2.54,10.74,4.48Z"></path><path class="cls-12" d="M307.38,221.14c1.32.66,2.36,1.79,2.92,3.16.51,1.96-1.01,3.84-2.58,5.12-1.35,1.2-3.01,2-4.78,2.31-2.61.31-5.1-1.1-7.26-2.58-1.21-.74-2.24-1.73-3.02-2.92-2.01-3.53.59-8.07,3.99-9.57,3.77-1.63,7.78,2.54,10.74,4.48Z"></path></g></svg>